ply
format ascii 1.0
element vertex 256
comment vertices
property float x
property float y
property float z
end_header
-1.31701028347015381 0.573243379592895508 -1.64012432098388672
-3.84093260765075684 5.5520782470703125 -5.50977563858032227
-2.1110386848449707 3.80558919906616211 -4.05297040939331055
-3.71721410751342773 4.18219757080078125 -4.27776622772216797
-2.71172189712524414 2.43774819374084473 -2.84785747528076172
-2.23314166069030762 4.36081933975219727 -4.80203056335449219
-1.23582899570465088 2.4259190559387207 -2.68181467056274414
-2.63602900505065918 3.39427828788757324 -3.68635773658752441
-1.76281893253326416 2.94765448570251465 -3.73902201652526855
-4.49049949645996094 4.77016019821166992 -4.72167253494262695
-2.48265767097473145 4.16950035095214844 -4.31343841552734375
-1.99909353256225586 1.28979980945587158 -0.908454000949859619
-3.35073161125183105 4.94648313522338867 -4.73983573913574219
-2.79839205741882324 4.14151859283447266 -4.5347747802734375
-1.88430070877075195 3.61357736587524414 -4.42541408538818359
-0.684543430805206299 1.21196413040161133 -1.21575582027435303
-1.61731672286987305 2.1539158821105957 -3.12585020065307617
-2.50542449951171875 3.36395025253295898 -3.21179962158203125
-1.77417290210723877 3.31621003150939941 -4.09128904342651367
-1.44122898578643799 2.87075161933898926 -3.04268574714660645
-3.14712190628051758 3.66884827613830566 -3.99084830284118652
-3.27014636993408203 4.45112419128417969 -4.41646146774291992
-3.13725757598876953 3.84729218482971191 -4.28039121627807617
-1.70399105548858643 3.33153939247131348 -3.79721450805664062
-2.37912964820861816 3.6235496997833252 -4.26014900207519531
-4.18771553039550781 4.53361272811889648 -4.62712430953979492
-2.64006471633911133 3.89769411087036133 -4.56759119033813477
-2.02556920051574707 2.56299686431884766 -3.36871790885925293
-2.12949705123901367 3.97943592071533203 -4.16208600997924805
-3.88347482681274414 5.07298469543457031 -4.97227716445922852
-1.30220603942871094 1.77552151679992676 -2.30019474029541016
-1.58492624759674072 1.60053467750549316 -1.06006264686584473
-2.95590806007385254 4.3743290901184082 -4.92536258697509766
-1.55213916301727295 2.41348767280578613 -3.38901662826538086
-2.92324542999267578 4.48536252975463867 -4.67301607131958008
-4.85231828689575195 5.10938024520874023 -4.83580732345581055
-0.830450534820556641 0.786195158958435059 -0.734689533710479736
-2.00412821769714355 1.70087218284606934 -2.77627253532409668
-3.8201606273651123 4.66797304153442383 -4.76639413833618164
-2.85902738571166992 3.38061618804931641 -3.65361905097961426
-3.6549079418182373 5.41397762298583984 -5.21866750717163086
-3.16016912460327148 4.01857185363769531 -4.21603250503540039
-2.33595180511474609 3.03462862968444824 -3.75784683227539062
-0.971702098846435547 1.35240805149078369 -0.514172375202178955
-1.11886250972747803 0.112657845020294189 0.281114339828491211
-2.60611820220947266 3.50355267524719238 -4.00448274612426758
-2.68812227249145508 3.18690276145935059 -3.64612698554992676
-2.48993253707885742 4.16889667510986328 -4.37753105163574219
-2.40533161163330078 3.83864688873291016 -4.41127777099609375
-3.43459010124206543 4.50018072128295898 -4.65196418762207031
-1.76478075981140137 3.60730671882629395 -4.19141054153442383
-1.92693328857421875 2.11496853828430176 -3.11606144905090332
-1.61380648612976074 2.6250920295715332 -3.55679035186767578
-1.53299820423126221 2.98036813735961914 -3.86797952651977539
-3.2917637825012207 3.78513264656066895 -4.10638332366943359
-2.06141924858093262 2.91916203498840332 -3.50437092781066895
-2.81109356880187988 4.22040414810180664 -4.69768571853637695
-2.92488908767700195 3.49259376525878906 -3.86507368087768555
-1.4478529691696167 1.93776774406433105 -2.66042757034301758
-0.594214439392089844 1.11164975166320801 -1.86128497123718262
-1.05220389366149902 1.7640998363494873 -2.63048005104064941
-3.14981508255004883 4.07950639724731445 -4.36937093734741211
-2.51430726051330566 2.65602445602416992 -3.33685302734375
-4.50977039337158203 4.96019935607910156 -4.81993198394775391
-1.36785626411437988 2.94831752777099609 -2.86650443077087402
-2.19313168525695801 3.31293082237243652 -3.82838916778564453
-3.80176496505737305 5.2647705078125 -4.70780467987060547
-2.70565247535705566 3.90243148803710938 -4.58349704742431641
-1.65987122058868408 3.44717526435852051 -4.00488519668579102
-2.52076220512390137 4.52367830276489258 -5.19076776504516602
-2.26221966743469238 4.0031733512878418 -4.51256370544433594
-2.56686019897460938 2.42608332633972168 -2.54589653015136719
-3.92226481437683105 4.25895309448242188 -4.49512052536010742
-3.3928372859954834 4.74107456207275391 -4.65424299240112305
-1.39362990856170654 1.45385575294494629 -1.84870123863220215
-1.54628896713256836 2.91200113296508789 -3.59517049789428711
-1.15495741367340088 1.31646454334259033 -0.705511391162872314
-2.37991023063659668 4.06995773315429688 -4.1312413215637207
-1.67656123638153076 3.40466165542602539 -4.31311655044555664
-2.99825358390808105 3.60617280006408691 -3.89223074913024902
-2.46686553955078125 3.79935979843139648 -4.40304946899414062
-3.11654400825500488 4.49390268325805664 -5.29135560989379883
-2.81678223609924316 4.30337429046630859 -4.24669599533081055
-4.27257394790649414 5.22208452224731445 -5.35000753402709961
-1.55847024917602539 2.08159017562866211 -3.21558260917663574
-1.41235613822937012 0.821512222290039062 -1.7846602201461792
-1.64019978046417236 1.79320383071899414 -2.40784859657287598
-3.35021066665649414 3.9595494270324707 -4.20489311218261719
-1.73485291004180908 2.78431296348571777 -3.75703835487365723
-2.97725868225097656 4.29252815246582031 -4.44432544708251953
-4.253753662109375 4.64365386962890625 -4.77580738067626953
-2.74758076667785645 4.11960697174072266 -4.55829095840454102
-2.93611335754394531 3.87812972068786621 -3.99884438514709473
-2.26764082908630371 4.1029205322265625 -4.04942131042480469
-3.25894880294799805 4.3141331672668457 -4.78731870651245117
-1.37681496143341064 1.38572156429290771 -1.26031744480133057
-1.87545299530029297 3.63984251022338867 -4.30173826217651367
-1.8295290470123291 3.47844529151916504 -4.19708728790283203
-0.948128938674926758 1.57615566253662109 -1.07819795608520508
-2.69340276718139648 4.02802133560180664 -4.48214864730834961
-2.55782413482666016 3.65385723114013672 -4.18888998031616211
-2.23042488098144531 1.86369085311889648 -2.94939041137695312
-1.80654370784759521 2.39390254020690918 -3.29640913009643555
-0.743382394313812256 1.46450173854827881 -1.95147156715393066
-1.9584038257598877 3.88854861259460449 -4.11325979232788086
-2.3496708869934082 1.61467301845550537 -1.56636536121368408
-2.55028057098388672 2.95206189155578613 -3.49913668632507324
-2.52149319648742676 4.1111750602722168 -4.51801681518554688
-2.07117271423339844 4.24300575256347656 -4.64782142639160156
-1.75395631790161133 2.95176124572753906 -3.59132146835327148
-2.29453086853027344 3.04183006286621094 -3.56666660308837891
-2.52527976036071777 3.26835894584655762 -3.87749123573303223
-3.86716890335083008 5.46591806411743164 -5.0956110954284668
-2.38821530342102051 3.82763433456420898 -4.41158151626586914
-1.96764135360717773 2.52302026748657227 -3.32677674293518066
-2.36068010330200195 3.70723366737365723 -4.33531475067138672
-1.60582816600799561 2.50633382797241211 -3.19931745529174805
-2.72561979293823242 3.44755101203918457 -3.82214570045471191
-0.965660810470581055 1.58596134185791016 -1.49131143093109131
-3.69588017463684082 4.19099855422973633 -4.19567394256591797
-3.24337315559387207 3.71686458587646484 -3.88280653953552246
-4.1699824333190918 4.59248065948486328 -4.76244735717773438
-2.10035967826843262 2.85578656196594238 -3.61886286735534668
-3.85730576515197754 4.85380125045776367 -4.70281505584716797
-1.29768228530883789 2.16931319236755371 -2.16900134086608887
-1.4934852123260498 3.02781271934509277 -3.69316291809082031
-2.1371612548828125 3.13258934020996094 -3.84293913841247559
-1.45052123069763184 1.71554362773895264 -2.90779805183410645
-1.80532407760620117 1.01352286338806152 -0.320054054260253906
-1.60173940658569336 2.4658043384552002 -3.48797988891601562
-1.51453065872192383 2.71551609039306641 -3.36606836318969727
-4.55212879180908203 4.88218927383422852 -4.73600482940673828
-3.40990328788757324 3.89296269416809082 -4.19265270233154297
-1.36080753803253174 2.30562901496887207 -2.83418536186218262
-2.53180360794067383 3.22229599952697754 -3.53586959838867188
-2.55424737930297852 4.15714359283447266 -4.15668773651123047
-2.78604888916015625 4.0829010009765625 -4.51041650772094727
-3.23279833793640137 4.23265504837036133 -4.50272750854492188
-1.0078045129776001 1.60423529148101807 -2.32264900207519531
-2.94228863716125488 4.2964482307434082 -4.57423830032348633
-3.21748495101928711 4.65554428100585938 -4.64115571975708008
-3.60972905158996582 5.18431234359741211 -4.82982683181762695
-3.17879605293273926 3.63588595390319824 -4.03377532958984375
-3.55742335319519043 5.00289201736450195 -4.73548078536987305
-2.70204687118530273 3.00815868377685547 -2.80141949653625488
-2.80436468124389648 4.02594947814941406 -4.44627189636230469
-0.835703551769256592 0.812799513339996338 -1.73138070106506348
-3.98921537399291992 4.38805007934570312 -4.59752416610717773
-1.44054079055786133 2.27190518379211426 -2.86554145812988281
-1.30771327018737793 0.797366797924041748 -1.44200170040130615
-2.46640229225158691 4.05215263366699219 -4.24077367782592773
-3.33393454551696777 4.58842039108276367 -4.54332208633422852
-1.48207473754882812 3.12895989418029785 -3.59046077728271484
-1.80198514461517334 2.50637674331665039 -3.59568405151367188
-3.26240348815917969 4.509979248046875 -4.62876653671264648
-3.17158389091491699 4.25563335418701172 -4.65651178359985352
-2.88956093788146973 4.18948459625244141 -4.34701871871948242
-2.62325859069824219 4.10094594955444336 -4.61245298385620117
-3.11937165260314941 3.98795461654663086 -4.16609001159667969
-1.74696147441864014 3.63868951797485352 -4.12770271301269531
-2.85190415382385254 3.42221808433532715 -3.79920697212219238
-2.61661982536315918 3.96636795997619629 -4.40107870101928711
-2.65397214889526367 2.84351515769958496 -2.25108647346496582
-3.92184805870056152 4.38257122039794922 -4.49478912353515625
-3.7259058952331543 4.1188812255859375 -4.34928369522094727
-1.83314955234527588 3.70387053489685059 -4.03491497039794922
-1.23039627075195312 2.20108795166015625 -3.05710601806640625
-3.26978135108947754 3.7216639518737793 -4.04588174819946289
-2.63804483413696289 3.48443937301635742 -3.97840094566345215
-3.54201030731201172 4.62271547317504883 -4.72335243225097656
-1.55124878883361816 2.99532151222229004 -3.89237546920776367
-3.84472990036010742 4.26115322113037109 -4.43253850936889648
-2.63507914543151855 4.22958707809448242 -4.33611345291137695
-1.23500776290893555 1.84760665893554688 -1.22513413429260254
-2.55648636817932129 3.85964250564575195 -4.37325668334960938
-1.51844418048858643 3.16178798675537109 -4.0144953727722168
-2.34653878211975098 4.02032756805419922 -4.48770570755004883
-0.86349719762802124 1.71334517002105713 -1.74012553691864014
-2.99826622009277344 4.49318647384643555 -5.07067155838012695
-2.88413715362548828 4.39395570755004883 -4.76332664489746094
-2.18806934356689453 2.66949343681335449 -3.46445560455322266
-1.47200906276702881 3.00631403923034668 -3.87484049797058105
-2.64264631271362305 3.8010554313659668 -4.43766450881958008
-3.22703099250793457 4.10757827758789062 -4.57340097427368164
-2.17791247367858887 3.92339396476745605 -4.23377323150634766
-1.84204673767089844 2.27712345123291016 -3.09113621711730957
-2.46698927879333496 3.04219150543212891 -3.66177845001220703
-2.24414229393005371 3.45176148414611816 -4.16229772567749023
-2.85015201568603516 3.54801130294799805 -3.90491533279418945
-1.6954265832901001 1.52835476398468018 -2.09256649017333984
-3.19815826416015625 4.48438787460327148 -4.31622695922851562
-2.31586194038391113 3.96258950233459473 -4.21593379974365234
-0.75820624828338623 1.40236556529998779 -0.936381936073303223
-2.75900101661682129 3.35654592514038086 -3.82413339614868164
-1.9160311222076416 3.56118035316467285 -4.30466604232788086
-1.72101783752441406 3.05266737937927246 -3.49937987327575684
-1.60920321941375732 3.24682807922363281 -3.98948431015014648
-1.58931064605712891 3.27915430068969727 -3.82871437072753906
-1.49539399147033691 1.99533796310424805 -2.50744724273681641
-2.71517634391784668 4.24573850631713867 -4.22047567367553711
-3.87648582458496094 5.32385778427124023 -4.99490976333618164
-2.90517187118530273 3.89985179901123047 -4.45626544952392578
-2.76947641372680664 4.10876178741455078 -4.47298908233642578
-3.0307776927947998 3.60470700263977051 -3.95571517944335938
-1.03897976875305176 0.871003150939941406 -1.78201138973236084
-2.71595191955566406 3.50898146629333496 -4.15649700164794922
-2.15496063232421875 3.7451481819152832 -4.36286115646362305
-2.66970205307006836 2.04595732688903809 -2.7964928150177002
-1.3452301025390625 2.44914531707763672 -2.09646916389465332
-4.38686466217041016 4.54748725891113281 -4.82871150970458984
-1.96851623058319092 3.59178757667541504 -4.337982177734375
-2.63879609107971191 3.18293261528015137 -3.07167577743530273
-1.34266233444213867 1.69103658199310303 -1.60434913635253906
-1.74753081798553467 2.48730897903442383 -3.23350048065185547
-3.47573542594909668 4.90295553207397461 -4.67783117294311523
-3.32756972312927246 4.71502017974853516 -4.69619941711425781
-1.00821065902709961 1.27739524841308594 -1.22431623935699463
-1.69662094116210938 3.52086758613586426 -4.09949636459350586
-1.96277213096618652 2.78261685371398926 -3.64450454711914062
-2.78744053840637207 4.27010297775268555 -4.36389446258544922
-1.20218253135681152 1.90262627601623535 -2.96178340911865234
-3.04424262046813965 4.34587383270263672 -4.66831731796264648
-2.33349466323852539 3.92312335968017578 -4.18401813507080078
-1.70490181446075439 3.47897672653198242 -3.93173694610595703
-3.51338076591491699 4.08135700225830078 -4.2399444580078125
-1.31280076503753662 1.12822353839874268 -0.177473127841949463
-2.89860725402832031 4.17161893844604492 -4.54084062576293945
-2.0057685375213623 2.51364040374755859 -3.31822657585144043
-3.36580181121826172 3.93125677108764648 -4.16917324066162109
-2.62077760696411133 2.48726034164428711 -3.12329554557800293
-2.21025681495666504 2.75642061233520508 -3.39064359664916992
-2.72847509384155273 4.23224544525146484 -4.32650995254516602
-2.84910154342651367 3.44363975524902344 -3.97547698020935059
-3.55681610107421875 5.02132177352905273 -4.73808097839355469
-1.96698975563049316 2.96518564224243164 -3.74285340309143066
-1.13997352123260498 1.58421885967254639 -2.07591676712036133
-3.21986079216003418 4.02330875396728516 -4.33788585662841797
-1.77271056175231934 2.30588531494140625 -3.34025359153747559
-1.05462443828582764 1.92231655120849609 -2.74611139297485352
-2.57238960266113281 4.27925443649291992 -4.78598833084106445
-2.28058338165283203 4.04993152618408203 -4.31515312194824219
-2.31930088996887207 2.96260595321655273 -3.41508865356445312
-2.47376894950866699 3.4244844913482666 -4.01368093490600586
-0.575177609920501709 1.24908804893493652 -1.12815821170806885
-0.858140110969543457 1.65643501281738281 -1.9995262622833252
-2.97836136817932129 4.28308200836181641 -4.33561325073242188
-1.64596736431121826 2.65517354011535645 -3.5304110050201416
-2.34383177757263184 3.41210198402404785 -4.02172517776489258
-3.06849789619445801 4.34726095199584961 -4.78033304214477539
-3.52046799659729004 4.01717424392700195 -4.24511432647705078
-2.75581145286560059 4.20488357543945312 -4.55835914611816406
-0.661089062690734863 1.54715991020202637 -1.87549483776092529
-1.06302523612976074 1.4339754581451416 -1.3777306079864502
-1.03898966312408447 1.25572037696838379 -0.545974314212799072
-1.70189011096954346 3.43924760818481445 -4.21132230758666992
-1.48746836185455322 2.73127365112304688 -3.49948310852050781
