ply
format ascii 1.0
element vertex 256
comment vertices
property float x
property float y
property float z
end_header
-0.00767191126942634583 2.39774584770202637 -1.15998589992523193
-0.256745457649230957 4.56677103042602539 -0.257804721593856812
1.84271430969238281 3.49910879135131836 -0.52071911096572876
-2.39901232719421387 -0.60319066047668457 -1.19099414348602295
-0.922436535358428955 3.29545164108276367 -1.14621925354003906
1.47657084465026855 3.10490846633911133 -1.12586784362792969
0.517535805702209473 4.5472412109375 -0.467479407787322998
0.0521383881568908691 2.77988243103027344 -1.19120967388153076
-1.10487699508666992 2.4767458438873291 -1.11619091033935547
0.810383081436157227 4.100982666015625 -0.242438435554504395
-1.40561127662658691 2.76692366600036621 -0.874141812324523926
0.387126535177230835 4.15447139739990234 -0.676410973072052002
-0.582700550556182861 1.97586929798126221 -1.19765663146972656
0.751499831676483154 3.55421543121337891 -1.10134577751159668
1.10943138599395752 2.62747383117675781 -1.08549106121063232
-0.307585954666137695 1.74633002281188965 -1.39967942237854004
0.201395943760871887 2.71805620193481445 -1.15650284290313721
1.11509430408477783 3.99866747856140137 -1.00814509391784668
0.194687306880950928 1.34790349006652832 -1.12922513484954834
0.0366765484213829041 2.73590517044067383 -1.1730424165725708
-0.195206627249717712 2.27569675445556641 -1.17094755172729492
0.901615142822265625 4.0671849250793457 -1.00105607509613037
1.60157680511474609 4.02101469039916992 -1.0097658634185791
-1.74308860301971436 2.65819597244262695 -1.20057368278503418
0.238568440079689026 2.92278003692626953 -1.21669673919677734
-1.05658185482025146 4.00051736831665039 -1.0794830322265625
0.729838311672210693 3.57199811935424805 -1.12417387962341309
-0.17213885486125946 2.26767611503601074 -1.20152842998504639
-1.40169596672058105 2.45633792877197266 -0.52505791187286377
1.35973870754241943 4.12067127227783203 -0.0566530898213386536
1.0852961540222168 2.65775012969970703 -1.06815826892852783
0.653274774551391602 4.29413890838623047 -0.453531444072723389
-1.05202126502990723 3.7711024284362793 -0.520811498165130615
-0.288259744644165039 3.91717886924743652 -1.0832211971282959
-1.75280821323394775 1.28168642520904541 -1.17831015586853027
-1.39335262775421143 3.46805500984191895 -1.10193216800689697
0.665909886360168457 3.9329681396484375 -0.740445494651794434
0.152846634387969971 2.95902085304260254 -1.18150687217712402
0.664861798286437988 2.1774132251739502 -1.10213494300842285
1.1568303108215332 2.6122586727142334 -1.09844982624053955
0.181238830089569092 2.31640458106994629 -1.03217637538909912
-1.51955902576446533 2.77388286590576172 -1.11222052574157715
-0.164630115032196045 2.16766071319580078 -1.20913517475128174
1.25191295146942139 3.5936284065246582 -1.14273715019226074
0.916555345058441162 4.39582920074462891 -1.01078104972839355
-1.23650181293487549 3.25274562835693359 -1.1912456750869751
-1.09487307071685791 2.48278522491455078 -1.07080447673797607
0.771833539009094238 3.18299126625061035 -1.13049197196960449
0.254150986671447754 3.5943608283996582 -0.922836065292358398
0.729918897151947021 3.90561485290527344 -1.02658188343048096
1.10909390449523926 2.64087057113647461 -1.09161746501922607
0.0203209072351455688 2.59966540336608887 -1.17492818832397461
0.0519099384546279907 2.73387527465820312 -1.16266584396362305
0.19460219144821167 1.37229812145233154 -1.10828447341918945
0.671772778034210205 2.17471432685852051 -1.11037445068359375
0.197371035814285278 2.46814846992492676 -1.14912450313568115
-0.299082279205322266 3.6483619213104248 -1.14624488353729248
0.123459652066230774 2.8310387134552002 -1.17148828506469727
2.8551487922668457 3.40864133834838867 -1.07831037044525146
-0.781731843948364258 3.72393178939819336 -0.857492685317993164
0.361603260040283203 4.60470056533813477 -0.888454437255859375
-1.60711944103240967 3.20009851455688477 -0.531638681888580322
0.66220778226852417 2.17788839340209961 -1.10921180248260498
0.733511447906494141 3.65850496292114258 -1.1015925407409668
-0.911192536354064941 2.42419815063476562 -1.14677226543426514
0.404702991247177124 3.7196965217590332 -1.1571037769317627
0.701372087001800537 4.27257633209228516 -0.282446026802062988
-0.741112470626831055 1.79903650283813477 -1.15149021148681641
0.176651567220687866 1.37992382049560547 -1.13208293914794922
0.171678528189659119 2.62050390243530273 -1.14430856704711914
-0.0196588411927223206 2.44229030609130859 -1.16906630992889404
-0.0769552290439605713 2.4408423900604248 -1.15561497211456299
-0.0132717788219451904 3.79855108261108398 -1.26561737060546875
-0.287615656852722168 3.90018892288208008 -1.12314510345458984
1.11750924587249756 2.6275627613067627 -1.08612418174743652
-2.15653681755065918 2.80946445465087891 -0.910476386547088623
-2.15204834938049316 2.86288905143737793 -1.03999662399291992
0.581861972808837891 4.3423771858215332 -0.482245415449142456
1.52464616298675537 2.84140491485595703 -1.03507137298583984
-0.0140127129852771759 2.74624228477478027 -1.19540560245513916
0.865734696388244629 2.74986624717712402 -1.11685824394226074
-0.469948172569274902 2.01760768890380859 -1.18888187408447266
1.19046640396118164 2.73171043395996094 -1.25775671005249023
0.221481665968894958 2.85031890869140625 -1.1840367317199707
1.08847320079803467 2.6471400260925293 -1.0627521276473999
1.87388825416564941 3.88945746421813965 -0.472522765398025513
0.585661888122558594 3.29007244110107422 -1.02176773548126221
-0.285124003887176514 3.90998220443725586 -1.12697041034698486
-1.60066616535186768 3.40566301345825195 -1.16068887710571289
0.761015832424163818 3.54776668548583984 -1.10973215103149414
-0.505292177200317383 2.43766880035400391 -1.12815046310424805
-1.16502773761749268 2.24272918701171875 -0.931894004344940186
0.73398745059967041 3.55526518821716309 -1.11417531967163086
-0.374565273523330688 3.14311957359313965 -0.755036711692810059
2.21326351165771484 2.84674644470214844 -0.655926823616027832
-2.77271246910095215 1.74519646167755127 -0.936906933784484863
-1.10492920875549316 2.47804379463195801 -1.12157845497131348
0.566209852695465088 4.95112991333007812 0.0108045041561126709
0.666137576103210449 2.21188259124755859 -1.12730920314788818
-1.47987616062164307 3.17792224884033203 -1.19876110553741455
0.80054241418838501 3.78799343109130859 -1.0937042236328125
-1.05163192749023438 2.29156970977783203 -1.26685619354248047
0.314916163682937622 4.62734270095825195 -0.192452952265739441
-0.264412492513656616 2.0776209831237793 -1.1860804557800293
0.736391305923461914 3.55703568458557129 -1.1113896369934082
-0.66974186897277832 3.40461039543151855 -1.17478299140930176
-0.718970000743865967 2.85000276565551758 -0.872199058532714844
1.15142393112182617 4.07702255249023438 -0.581109702587127686
1.8652946949005127 4.01078510284423828 -0.991726398468017578
-0.397426903247833252 2.00412130355834961 -1.21859622001647949
-1.23046553134918213 3.0202481746673584 -1.22235596179962158
1.10774517059326172 2.66137552261352539 -1.07964599132537842
0.664833247661590576 2.17379212379455566 -1.093536376953125
0.912974178791046143 3.37966251373291016 -1.02902054786682129
-1.73954880237579346 2.80155158042907715 -1.15608310699462891
0.658667683601379395 2.18993210792541504 -1.1262509822845459
0.181986361742019653 1.36921966075897217 -1.14603042602539062
-1.08987987041473389 2.47589015960693359 -1.06832456588745117
0.200083479285240173 1.34755504131317139 -1.12836205959320068
-0.13585074245929718 2.29518604278564453 -1.19650781154632568
-0.244745433330535889 2.69726133346557617 -1.17644417285919189
0.0487003624439239502 1.53092455863952637 -1.33553397655487061
0.959279835224151611 3.5554041862487793 -1.13061821460723877
0.660084843635559082 2.19613194465637207 -1.12701594829559326
-0.837233662605285645 4.16388750076293945 -0.530519425868988037
0.997517645359039307 2.63297533988952637 -1.11157035827636719
-1.44072699546813965 0.209527492523193359 -1.17913293838500977
0.333841711282730103 3.08044099807739258 -1.16100823879241943
-0.559596002101898193 2.61475586891174316 -1.17434394359588623
0.473564863204956055 4.49263906478881836 -0.373118460178375244
0.788677692413330078 4.25252532958984375 -0.543721556663513184
0.640778660774230957 3.80158567428588867 -0.968452334403991699
0.313971996307373047 4.60413789749145508 -0.944834887981414795
1.59081315994262695 2.81078886985778809 -1.00415682792663574
0.593615829944610596 3.89731216430664062 -1.11348605155944824
-0.100328020751476288 2.42443537712097168 -1.167153000831604
-0.291156232357025146 3.90721440315246582 -1.10431110858917236
0.209555670619010925 1.45939218997955322 -1.0748591423034668
1.22945916652679443 3.9156951904296875 -0.182485729455947876
0.825505197048187256 4.19916009902954102 -1.01880812644958496
0.567307412624359131 3.20169925689697266 -1.1006852388381958
-1.86897730827331543 0.361336231231689453 -1.17788851261138916
0.175246685743331909 2.72427558898925781 -1.18271994590759277
-0.271870791912078857 2.12962770462036133 -1.35569429397583008
0.103141307830810547 2.59764361381530762 -1.1702568531036377
0.12938082218170166 2.71592402458190918 -1.16435730457305908
-0.284105062484741211 0.385466575622558594 -1.34636902809143066
1.90848088264465332 3.7350311279296875 -1.03284204006195068
-0.00918148644268512726 2.55372953414916992 -1.16622889041900635
0.757430613040924072 3.54945206642150879 -1.11370635032653809
-2.93051815032958984 2.4377899169921875 -0.951300203800201416
0.0552223995327949524 2.73072314262390137 -1.16596889495849609
-1.31501638889312744 4.19758749008178711 -0.708932876586914062
0.00877185538411140442 2.83219432830810547 -1.18682098388671875
0.19529096782207489 1.37212586402893066 -1.12311005592346191
0.788815200328826904 2.65876579284667969 -1.19444596767425537
-0.0853174328804016113 2.12876057624816895 -1.13325691223144531
0.177866622805595398 2.3825836181640625 -1.22359800338745117
1.85592436790466309 4.12684535980224609 -0.947739362716674805
1.96433019638061523 2.4566950798034668 -1.16318821907043457
1.0908735990524292 2.64349985122680664 -1.09903931617736816
1.46078348159790039 4.04275417327880859 -0.0660154521465301514
1.10097301006317139 2.62574386596679688 -1.08685088157653809
0.511429488658905029 4.5633082389831543 -0.455874055624008179
0.519950509071350098 1.85055327415466309 -1.39264106750488281
0.0534298568964004517 2.50702571868896484 -1.15423309803009033
-0.0158892571926116943 2.65682888031005859 -1.14837324619293213
0.0537359714508056641 2.7715756893157959 -1.19160342216491699
-1.11129629611968994 2.70311975479125977 -0.565472304821014404
0.79348522424697876 4.21897363662719727 -0.956437468528747559
1.86511015892028809 1.44516134262084961 -0.854749083518981934
0.150155618786811829 2.75133800506591797 -1.17086362838745117
-0.394453942775726318 2.05274105072021484 -1.1611868143081665
0.487775176763534546 3.94395208358764648 -1.10373520851135254
-0.743952751159667969 2.49567461013793945 -1.24665951728820801
-0.278899013996124268 2.80043315887451172 -1.20771944522857666
0.661054790019989014 2.17764377593994141 -1.11101460456848145
0.191387921571731567 1.71405792236328125 -1.15008199214935303
0.657741904258728027 2.17999958992004395 -1.10816502571105957
1.02476763725280762 3.70652508735656738 -1.11616420745849609
0.194447636604309082 1.3777393102645874 -1.10116207599639893
1.58255016803741455 3.19092845916748047 -0.948470354080200195
1.09935593605041504 2.66240692138671875 -1.0880587100982666
-1.73551273345947266 1.61236262321472168 -1.09930598735809326
0.496964722871780396 2.80074191093444824 -1.12957775592803955
-0.139978289604187012 2.18868708610534668 -1.19066977500915527
0.451208174228668213 4.46627092361450195 -0.142526715993881226
0.984060764312744141 2.87018060684204102 -1.21010267734527588
0.100351318717002869 2.77200174331665039 -1.1707921028137207
-0.285591721534729004 3.90920901298522949 -1.09757852554321289
-1.16307294368743896 4.16710901260375977 -1.00954234600067139
-0.34691736102104187 2.1912844181060791 -1.1914222240447998
-1.57238590717315674 3.27716875076293945 -1.10269546508789062
1.12643706798553467 2.63248825073242188 -1.10448896884918213
-0.296604126691818237 3.92158102989196777 -1.08744001388549805
-0.0559232756495475769 2.54540657997131348 -1.15604901313781738
0.0749100595712661743 2.7383277416229248 -1.16614937782287598
-1.11909043788909912 4.22478628158569336 -0.661153018474578857
-1.70179760456085205 3.80250430107116699 -1.11789453029632568
0.780107676982879639 3.36095714569091797 -1.0269235372543335
-1.04725193977355957 2.60432624816894531 -0.742517352104187012
0.755312323570251465 3.5518498420715332 -1.10695242881774902
0.177860170602798462 2.83016729354858398 -1.17924618721008301
0.658854901790618896 2.17798089981079102 -1.102577805519104
-0.0385358631610870361 3.96884393692016602 -0.53726649284362793
0.655358195304870605 2.18538403511047363 -1.11224162578582764
0.349401861429214478 1.83254718780517578 -1.36594605445861816
-1.43287754058837891 3.37388062477111816 -0.857214272022247314
0.63990175724029541 4.34827518463134766 -0.257437288761138916
0.287443310022354126 3.03543567657470703 -1.1589658260345459
-1.11458563804626465 2.46321511268615723 -1.12233328819274902
-0.117140889167785645 3.48769831657409668 -0.711414337158203125
-1.05119955539703369 3.41615009307861328 -0.85599827766418457
0.0484651587903499603 2.55914545059204102 -1.15694224834442139
-1.38093686103820801 2.38812375068664551 -1.17039728164672852
0.00107332691550254822 2.8778989315032959 -1.18907797336578369
0.805360794067382812 3.02989292144775391 -1.11785173416137695
-0.29869958758354187 2.26420354843139648 -1.16875123977661133
0.650877952575683594 2.84764480590820312 -0.86887812614440918
-1.51550865173339844 3.2578885555267334 -0.490250468254089355
-2.71119832992553711 4.38209342956542969 -0.867618978023529053
1.10796809196472168 2.63174891471862793 -1.09216952323913574
0.467038333415985107 3.0026397705078125 -0.869195044040679932
-0.391570240259170532 1.99261283874511719 -1.20820915699005127
-1.34865355491638184 2.69148969650268555 -1.21525096893310547
0.749056577682495117 4.16724967956542969 -0.375934213399887085
0.983425498008728027 4.10750389099121094 -1.08118546009063721
0.198279827833175659 1.35486948490142822 -1.11039042472839355
-2.61045527458190918 1.17957711219787598 -1.03387534618377686
-0.412195086479187012 4.03811359405517578 -0.358702778816223145
0.271690905094146729 3.03168773651123047 -1.13086974620819092
-2.13314247131347656 2.50946235656738281 -1.13853120803833008
0.660332441329956055 2.19996404647827148 -1.11805975437164307
-0.279882133007049561 3.4143986701965332 -1.16936600208282471
0.13444875180721283 2.78010272979736328 -1.1739048957824707
-1.75548255443572998 1.33356237411499023 -0.856690049171447754
0.665105044841766357 2.1860206127166748 -1.12063634395599365
0.539406538009643555 2.36663722991943359 -1.26940083503723145
-0.807499110698699951 2.27074790000915527 -1.17724823951721191
0.241093903779983521 4.45027017593383789 -0.635190308094024658
1.11780941486358643 2.62769699096679688 -1.09295487403869629
1.55579030513763428 3.39316821098327637 -0.537775278091430664
0.804122567176818848 4.22767019271850586 -0.55249488353729248
-0.161375641822814941 2.30742573738098145 -1.16876697540283203
-0.698014020919799805 3.76989531517028809 -0.491110235452651978
-1.00275111198425293 3.40317511558532715 -1.17480671405792236
-1.10154259204864502 2.47606801986694336 -1.096596360206604
0.264734715223312378 2.92564558982849121 -1.17685997486114502
0.681453347206115723 4.1837620735168457 -0.500478446483612061
-0.527352809906005859 3.95038771629333496 -0.662672281265258789
0.921798408031463623 3.23246479034423828 -1.02713119983673096
-0.923467040061950684 2.99924039840698242 -1.12244653701782227
-0.98492962121963501 2.37853145599365234 -1.19500517845153809
0.98823702335357666 3.72957634925842285 -1.07284319400787354
0.34968721866607666 4.12099981307983398 -0.520179569721221924
0.704288661479949951 2.74241185188293457 -1.1364595890045166
