ply
format ascii 1.0
element vertex 256
comment vertices
property float x
property float y
property float z
end_header
-2.35129928588867188 3.72056198120117188 -5.63682985305786133
-5.15941047668457031 6.69141435623168945 -9.70962810516357422
-0.554971814155578613 -0.0890036523342132568 0.820844531059265137
-5.74505043029785156 5.25972604751586914 -6.27807188034057617
-3.58612346649169922 2.87536787986755371 -2.21877121925354004
-2.88379716873168945 6.03339242935180664 -6.24564599990844727
-3.74457645416259766 4.40557956695556641 -5.08053112030029297
-3.19157099723815918 2.33015251159667969 -4.60803985595703125
-1.70851457118988037 4.61745309829711914 -3.80722737312316895
-0.859668612480163574 1.9763801097869873 -2.31131911277770996
-4.78882980346679688 5.6956939697265625 -8.19016551971435547
-3.56160426139831543 4.47108364105224609 -6.0509495735168457
-2.06406545639038086 -0.298398971557617188 -4.68959426879882812
-2.94073700904846191 4.07289600372314453 -4.30412912368774414
-2.2354888916015625 4.46144819259643555 -5.86565923690795898
-2.40002250671386719 4.65495538711547852 -7.07222318649291992
-4.14931821823120117 5.76204490661621094 -5.89948511123657227
-2.60182356834411621 1.81741821765899658 -2.68505525588989258
-4.24360990524291992 3.22946500778198242 -5.30343055725097656
-4.72315549850463867 4.31043481826782227 -5.8777313232421875
-2.03129458427429199 4.36253881454467773 -4.6801753044128418
-2.24445533752441406 -0.333839774131774902 -4.59181070327758789
-4.76921701431274414 4.90149307250976562 -7.16592979431152344
-3.37763071060180664 4.01149797439575195 -5.59500646591186523
-2.5205531120300293 3.09971904754638672 -4.5866546630859375
-1.26876509189605713 3.19794011116027832 -2.39270424842834473
-3.98206996917724609 2.95464920997619629 -3.63653397560119629
-2.35667204856872559 4.22069454193115234 -5.90059328079223633
-1.47635853290557861 1.02283859252929688 -0.989763617515563965
-2.92295503616333008 5.16179800033569336 -5.81916141510009766
-3.23715758323669434 3.74385833740234375 -5.59930562973022461
-3.39074420928955078 3.36968231201171875 -4.7751307487487793
-2.22894763946533203 3.34580898284912109 -3.27868127822875977
-4.3549647331237793 4.64728641510009766 -5.731719970703125
-1.59115445613861084 3.48290491104125977 -4.944305419921875
-2.14820361137390137 1.92370450496673584 -3.03445148468017578
-4.71179962158203125 6.16071510314941406 -8.99193191528320312
-3.69551444053649902 3.96972990036010742 -4.78004884719848633
-2.97495293617248535 3.98194169998168945 -5.82928466796875
-2.1403956413269043 4.07808494567871094 -4.53192901611328125
-2.54709076881408691 2.63914203643798828 -3.72537636756896973
-2.90432500839233398 4.3584589958190918 -4.7428746223449707
-5.25912952423095703 5.96172666549682617 -6.26191520690917969
-4.91355133056640625 2.7689206600189209 -4.80174922943115234
-3.04599928855895996 4.01120567321777344 -5.83711814880371094
-2.91773843765258789 4.05042457580566406 -5.68914270401000977
-3.45014476776123047 4.33537912368774414 -4.72171258926391602
-4.25943994522094727 4.70846366882324219 -5.85735607147216797
-3.60580062866210938 3.24199724197387695 -5.83869314193725586
-1.91463208198547363 2.82608556747436523 -4.56605434417724609
-2.71357560157775879 5.80647516250610352 -5.99098873138427734
-3.29301118850708008 2.34820461273193359 -2.82492351531982422
-2.70324850082397461 3.35256457328796387 -3.79882049560546875
-4.11802005767822266 5.94982814788818359 -6.01401233673095703
-1.28064215183258057 2.55467104911804199 -3.05626845359802246
-3.10758757591247559 4.01173210144042969 -4.89107513427734375
-3.32004594802856445 1.77807414531707764 -3.84462809562683105
-2.13168597221374512 -0.00974345207214355469 -4.29429054260253906
-2.2112421989440918 4.1425471305847168 -4.99232578277587891
-4.28583335876464844 0.459241390228271484 -5.68230009078979492
-3.12752938270568848 3.82128453254699707 -5.47990131378173828
-1.41366314888000488 -0.202323675155639648 -3.03636646270751953
-2.70530843734741211 4.93370389938354492 -5.67809057235717773
-3.46812200546264648 2.19210314750671387 -4.16873931884765625
-3.84366202354431152 4.69246721267700195 -4.94013261795043945
-3.96656990051269531 3.25904130935668945 -5.92455673217773438
-2.0922696590423584 3.03612709045410156 -5.16951513290405273
-3.26566600799560547 4.13066482543945312 -6.38641834259033203
-2.56738615036010742 3.41550016403198242 -4.95320940017700195
-3.32108712196350098 4.24397897720336914 -5.60665178298950195
-2.39249610900878906 4.13254785537719727 -5.02069091796875
-2.81162738800048828 3.9839789867401123 -5.79797744750976562
-2.42165327072143555 4.04758119583129883 -5.76940584182739258
-1.75404810905456543 3.97069048881530762 -4.06036138534545898
-3.08018064498901367 2.82479238510131836 -4.57289648056030273
-1.61268889904022217 4.02298450469970703 -3.5109865665435791
-3.34481477737426758 3.27715015411376953 -4.73194980621337891
-1.8562769889831543 4.02725744247436523 -4.97959375381469727
-4.04543590545654297 4.6895756721496582 -6.6889033317565918
-3.54931640625 4.37900924682617188 -5.7270808219909668
-3.35435986518859863 4.68990516662597656 -5.9242100715637207
-3.54125618934631348 4.33453273773193359 -4.55348968505859375
-3.88951754570007324 5.09536170959472656 -5.74049520492553711
-3.80028533935546875 3.76852273941040039 -3.85105395317077637
-1.86803650856018066 2.45901131629943848 -4.25290250778198242
-4.06412220001220703 4.08011341094970703 -5.80866813659667969
-2.9023444652557373 3.08513665199279785 -3.19319844245910645
-4.30979108810424805 5.20417881011962891 -7.61383676528930664
-4.84245109558105469 4.76692676544189453 -6.18237447738647461
-2.46969032287597656 3.80066251754760742 -3.80666685104370117
-0.779116928577423096 1.57288265228271484 -1.64000904560089111
-2.89042282104492188 2.40783905982971191 -4.35490846633911133
-4.57818412780761719 3.67902064323425293 -5.28476619720458984
-1.96250700950622559 -0.0357034206390380859 -3.23210453987121582
-0.650323688983917236 0.400401085615158081 -0.130039498209953308
-3.15302753448486328 3.13178610801696777 -4.80205440521240234
-4.70962810516357422 5.9599151611328125 -8.52857398986816406
-3.25104379653930664 3.56870079040527344 -5.37556886672973633
-3.42495346069335938 3.89811587333679199 -5.56982421875
-2.54334163665771484 0.594543099403381348 -3.62552142143249512
-2.45448637008666992 4.06766986846923828 -4.29270172119140625
-5.57002925872802734 5.44134378433227539 -5.93465805053710938
-2.55627083778381348 4.31202411651611328 -5.95042705535888672
-2.77000927925109863 0.984127283096313477 -4.44100522994995117
-2.9326939582824707 1.55841946601867676 -4.58174467086791992
-2.96170425415039062 4.43365478515625 -6.38464498519897461
-3.1168515682220459 4.5601954460144043 -4.98645496368408203
-2.28536605834960938 4.29912137985229492 -4.7018742561340332
-2.86292433738708496 3.70583128929138184 -5.08304262161254883
-2.82258319854736328 3.99007606506347656 -4.78235149383544922
-3.19678497314453125 4.21143579483032227 -5.55524826049804688
-2.15291261672973633 3.80290031433105469 -5.68891239166259766
-2.98044705390930176 4.25241279602050781 -4.8276219367980957
-0.529492616653442383 0.356215238571166992 -3.55040884017944336
-4.93490171432495117 4.83478879928588867 -5.94100141525268555
-2.01811051368713379 3.61206436157226562 -5.35623311996459961
-2.73495769500732422 4.94754695892333984 -5.19675350189208984
-4.6235804557800293 5.06706047058105469 -5.86715126037597656
-2.73990035057067871 3.42443752288818359 -4.87190580368041992
-3.12960910797119141 3.90430855751037598 -5.71204280853271484
-2.50038266181945801 2.47185802459716797 -3.41501069068908691
-2.80707597732543945 3.90868854522705078 -4.81843757629394531
-3.07404255867004395 3.96054220199584961 -5.15600728988647461
-1.80529594421386719 1.97523331642150879 -3.48160815238952637
-1.59968233108520508 2.53771805763244629 -3.88515663146972656
-1.8854517936706543 4.04485273361206055 -4.66678714752197266
-3.45787930488586426 3.23267507553100586 -4.83914756774902344
-1.94086599349975586 0.739413142204284668 -0.945345520973205566
-3.63432073593139648 4.46967172622680664 -4.7509002685546875
-2.65517139434814453 2.72557950019836426 -4.30265903472900391
-3.5695037841796875 3.73162651062011719 -4.4315648078918457
-3.40069937705993652 3.24371552467346191 -2.82160806655883789
-3.15427970886230469 3.82005119323730469 -5.43178892135620117
-4.78839015960693359 3.41316771507263184 -5.60839033126831055
-2.04681754112243652 2.34218049049377441 -3.98608231544494629
-3.39596772193908691 3.59860014915466309 -5.35873889923095703
-2.45315074920654297 3.95310306549072266 -5.51942634582519531
-4.53200721740722656 6.38130950927734375 -9.35778427124023438
-2.86562347412109375 2.96774435043334961 -4.59208250045776367
-2.0821988582611084 3.1232914924621582 -4.80324316024780273
-5.21127605438232422 4.46855258941650391 -5.89691972732543945
-2.53729891777038574 3.91690516471862793 -4.01554298400878906
-4.37767553329467773 5.30216646194458008 -5.8684844970703125
-3.21489119529724121 3.91129064559936523 -5.49870872497558594
-2.49930047988891602 -1.31135058403015137 -4.35136556625366211
-2.99239182472229004 4.18980789184570312 -4.59768438339233398
-0.991197943687438965 1.99252772331237793 -2.59227514266967773
-3.97217774391174316 4.26364612579345703 -5.86334228515625
-4.0355839729309082 4.46753931045532227 -5.22257375717163086
-3.10279321670532227 2.54583382606506348 -3.94444012641906738
-2.85530519485473633 1.09244680404663086 -3.96329021453857422
-1.53515636920928955 3.09970951080322266 -3.3243865966796875
-4.82777118682861328 3.68242907524108887 -5.19590377807617188
-3.13830447196960449 2.81415939331054688 -4.52253389358520508
-2.7807316780090332 1.17055583000183105 -4.53537702560424805
-3.05036115646362305 4.30176019668579102 -5.91287660598754883
-2.77909564971923828 4.25240373611450195 -4.53372287750244141
-3.7499549388885498 3.15066766738891602 -5.31296873092651367
-2.40167117118835449 4.66949272155761719 -6.08791065216064453
-2.63004279136657715 1.62143909931182861 -2.56450271606445312
-2.67659664154052734 4.90147542953491211 -5.65336179733276367
-5.33693122863769531 3.57950329780578613 -5.8965907096862793
-2.84398055076599121 4.24494171142578125 -5.84861135482788086
-2.28254437446594238 3.30353426933288574 -4.91959619522094727
-3.44946575164794922 4.05020666122436523 -5.52769756317138672
-4.05385112762451172 4.84403276443481445 -5.90314435958862305
-2.1708834171295166 3.7115631103515625 -5.39006328582763672
-1.69119727611541748 3.24819207191467285 -4.64839076995849609
-2.10798811912536621 4.10993480682373047 -4.1413121223449707
-2.56410694122314453 3.46992278099060059 -3.49098491668701172
-2.94940495491027832 4.71242094039916992 -5.80807256698608398
-3.0464625358581543 3.21446943283081055 -3.2992408275604248
-3.19859123229980469 2.55413246154785156 -4.3605952262878418
-1.4095451831817627 2.23565125465393066 -3.59601116180419922
-2.44610714912414551 4.01853704452514648 -5.818450927734375
-3.98770260810852051 3.51076197624206543 -3.90642356872558594
-1.92118620872497559 0.731163918972015381 -3.12986612319946289
-2.83518671989440918 3.95638537406921387 -5.38472652435302734
-3.99969983100891113 3.59153294563293457 -4.73057699203491211
-2.28273344039916992 4.04671621322631836 -5.76186847686767578
-2.79787278175354004 3.48484992980957031 -5.00797653198242188
-2.32390165328979492 4.40976715087890625 -4.89288234710693359
-3.82074165344238281 3.79380607604980469 -5.92133665084838867
-3.47014045715332031 2.48073911666870117 -3.07192063331604004
-3.80490517616271973 4.76750755310058594 -5.54573202133178711
-3.14025592803955078 3.92409443855285645 -5.67575931549072266
-2.39717411994934082 3.83865904808044434 -4.04461908340454102
-3.16940188407897949 4.40470647811889648 -5.69515419006347656
-2.18958854675292969 5.40065383911132812 -5.86677455902099609
-3.75195813179016113 4.56225204467773438 -4.88569116592407227
-2.65905117988586426 3.83469009399414062 -5.77333688735961914
-2.50666451454162598 2.15355348587036133 -3.86014437675476074
-4.56155061721801758 5.49234580993652344 -5.92305946350097656
-3.53947710990905762 5.67541265487670898 -5.8437809944152832
-1.60170388221740723 2.54292058944702148 -4.20722103118896484
-3.21757674217224121 3.67760038375854492 -5.59299755096435547
-2.45006012916564941 3.78676390647888184 -5.71857690811157227
-2.29209446907043457 4.24895524978637695 -4.83398866653442383
-3.8002164363861084 3.35222339630126953 -5.70375776290893555
-2.22563433647155762 2.04442620277404785 -3.37484574317932129
-1.53971004486083984 -0.570199728012084961 -3.95505404472351074
-2.68285584449768066 1.78422486782073975 -3.99090051651000977
-1.68985986709594727 4.02695369720458984 -5.35861301422119141
-4.67263221740722656 3.95703625679016113 -5.81455230712890625
-3.55466437339782715 4.43017864227294922 -4.96572971343994141
-2.53580045700073242 3.65060853958129883 -5.20640850067138672
-3.06042194366455078 2.59642243385314941 -4.46724271774291992
-1.80502879619598389 3.81480908393859863 -5.15497779846191406
-3.27015995979309082 4.00793600082397461 -3.84954667091369629
-2.77495121955871582 1.84500515460968018 -3.88452053070068359
-2.9734961986541748 4.07453727722167969 -5.69329071044921875
-2.97232675552368164 4.30409574508666992 -4.80494356155395508
-3.13024806976318359 3.78371953964233398 -5.49309062957763672
-2.89564108848571777 4.60837507247924805 -6.87819719314575195
-1.40963149070739746 2.17108011245727539 -2.58849406242370605
-3.31036996841430664 4.04441308975219727 -5.45238780975341797
-1.46623289585113525 2.64308357238769531 -4.69043874740600586
-2.04852724075317383 6.07303190231323242 -5.98759698867797852
-1.70548045635223389 1.66543745994567871 -1.79143428802490234
-4.16012716293334961 4.59393739700317383 -5.79637956619262695
-4.42344856262207031 1.92146515846252441 -5.47414541244506836
-2.87177109718322754 2.88817119598388672 -4.6891169548034668
-3.66237711906433105 2.88975858688354492 -3.30941438674926758
-2.25506162643432617 4.26165628433227539 -4.88018083572387695
-2.87116909027099609 0.441916823387145996 -4.06573820114135742
-2.9157254695892334 2.62455177307128906 -4.43561220169067383
-0.662568211555480957 0.642332017421722412 -0.485622584819793701
-3.76350784301757812 3.61858081817626953 -5.85291194915771484
-2.08108329772949219 3.65926575660705566 -5.66859722137451172
-4.27578401565551758 3.59742569923400879 -5.42679595947265625
-3.78539633750915527 4.98720741271972656 -5.49960565567016602
-1.97232508659362793 3.91987442970275879 -4.717987060546875
-1.64042139053344727 3.96586918830871582 -3.55044722557067871
-3.20897436141967773 2.55879759788513184 -4.46847915649414062
-3.33411884307861328 4.0171513557434082 -5.22020339965820312
-3.84580326080322266 3.41193294525146484 -4.99874353408813477
-1.07965254783630371 3.54054784774780273 -2.78358721733093262
-2.83925414085388184 3.56778073310852051 -4.92448616027832031
-3.06828069686889648 2.22337555885314941 -1.40977418422698975
-3.29242467880249023 3.81701350212097168 -5.44704484939575195
-3.08010029792785645 2.75841188430786133 -4.53336524963378906
-4.51956558227539062 5.45122909545898438 -7.91470146179199219
-3.21851444244384766 4.21637153625488281 -4.17824506759643555
-2.2846686840057373 4.25220537185668945 -4.75764799118041992
-3.20042109489440918 3.27491283416748047 -4.86822080612182617
-1.83082127571105957 3.37304806709289551 -5.21772241592407227
-1.78009176254272461 3.7803034782409668 -4.917144775390625
-3.29248428344726562 4.02135181427001953 -5.54991960525512695
-4.12392997741699219 3.44258832931518555 -5.43593263626098633
-1.98510909080505371 4.13775873184204102 -5.78350830078125
-3.12847232818603516 4.16994571685791016 -4.89510488510131836
-2.61533308029174805 3.20123147964477539 -4.70071506500244141
-3.64270520210266113 3.54108524322509766 -5.06100606918334961
-1.88920891284942627 3.56900262832641602 -5.51883506774902344
-3.34783005714416504 4.06284999847412109 -5.22312211990356445
-2.95345187187194824 1.71786606311798096 -4.94181060791015625
