ply
format ascii 1.0
element vertex 256
comment vertices
property float x
property float y
property float z
end_header
-1.02097535133361816 -0.709331393241882324 -1.91774463653564453
-4.34495067596435547 5.68329477310180664 -5.49623537063598633
-2.17620539665222168 3.86101698875427246 -4.0230708122253418
-3.74151802062988281 4.23493242263793945 -4.16554498672485352
-2.86089396476745605 1.77312374114990234 -2.725494384765625
-2.20174026489257812 4.37039804458618164 -4.75286388397216797
-1.25682234764099121 2.07098627090454102 -2.35757923126220703
-2.67273283004760742 3.29020905494689941 -3.40373945236206055
-1.72765254974365234 2.84777069091796875 -3.51935243606567383
-4.45144081115722656 4.76879215240478516 -4.79380226135253906
-2.58252668380737305 4.07692718505859375 -4.25887489318847656
-2.02411508560180664 1.70358562469482422 -1.14458417892456055
-3.25927257537841797 4.91000032424926758 -4.71279048919677734
-2.8017120361328125 3.99072122573852539 -4.49819421768188477
-1.8244783878326416 3.58035778999328613 -4.33089303970336914
-0.736722886562347412 1.3944849967956543 -1.22266244888305664
-1.65913271903991699 2.00969409942626953 -2.84820938110351562
-2.61034178733825684 3.03055286407470703 -2.83197808265686035
-1.72238194942474365 3.34715819358825684 -4.04181003570556641
-1.40934550762176514 2.78115749359130859 -2.86595559120178223
-3.13043522834777832 3.62780427932739258 -3.76767778396606445
-3.38292765617370605 4.42819976806640625 -4.41640615463256836
-3.24293708801269531 3.84138226509094238 -4.101654052734375
-1.61560261249542236 3.33420085906982422 -3.82439684867858887
-2.45186042785644531 3.66339111328125 -4.23935794830322266
-4.21085453033447266 4.55796527862548828 -4.64937782287597656
-2.66024923324584961 3.89340734481811523 -4.45473909378051758
-2.01336002349853516 2.41773557662963867 -3.11160659790039062
-2.21872329711914062 3.93898940086364746 -4.06134223937988281
-4.00630950927734375 4.94570446014404297 -4.89460086822509766
-1.34810066223144531 1.5828545093536377 -2.11738204956054688
-1.65685033798217773 1.97158908843994141 -1.29716765880584717
-2.94588470458984375 4.35225534439086914 -4.8759002685546875
-1.63402140140533447 2.33917927742004395 -3.11658906936645508
-2.9411008358001709 4.423187255859375 -4.70871829986572266
-5.61846590042114258 5.47710752487182617 -4.89825820922851562
-0.847487986087799072 1.1825714111328125 -0.975205540657043457
-2.35679054260253906 0.337366223335266113 -2.74900102615356445
-3.95048213005065918 4.54871225357055664 -4.76195907592773438
-2.85800552368164062 3.28768682479858398 -3.40657448768615723
-3.16910982131958008 5.44076061248779297 -5.23319339752197266
-3.24056148529052734 3.99658036231994629 -4.02745199203491211
-2.36568236351013184 2.9767768383026123 -3.48579168319702148
-1.02643239498138428 1.77848982810974121 -0.743622899055480957
-1.14556884765625 0.531575679779052734 0.0434161126613616943
-2.65035247802734375 3.42679738998413086 -3.7417457103729248
-2.71840667724609375 3.18182849884033203 -3.34467434883117676
-2.60760664939880371 4.09762048721313477 -4.32069540023803711
-2.56107401847839355 3.76457071304321289 -4.30142116546630859
-3.62258553504943848 4.47738933563232422 -4.63928461074829102
-1.791190505027771 3.55312681198120117 -4.13825368881225586
-1.91377735137939453 1.62378287315368652 -2.94535064697265625
-1.64419138431549072 2.57716608047485352 -3.32460737228393555
-1.53925764560699463 3.02115631103515625 -3.72830033302307129
-3.22111940383911133 3.76392412185668945 -3.86958909034729004
-2.0868833065032959 2.7586967945098877 -3.25051212310791016
-2.82669854164123535 4.05304050445556641 -4.60752105712890625
-2.91538810729980469 3.39822030067443848 -3.55529999732971191
-1.42937541007995605 1.78065788745880127 -2.40514111518859863
-0.486813008785247803 0.23633575439453125 -1.89269363880157471
-1.09270393848419189 1.55147302150726318 -2.39340448379516602
-3.28947329521179199 4.01719093322753906 -4.30962848663330078
-2.58546090126037598 2.53165745735168457 -2.96911406517028809
-4.51831865310668945 5.1218867301940918 -4.83815479278564453
-1.31400680541992188 3.16146421432495117 -2.97285318374633789
-2.25414776802062988 3.28841662406921387 -3.63737630844116211
-4.44750642776489258 5.41840219497680664 -4.78752756118774414
-2.7108001708984375 3.90001869201660156 -4.48418951034545898
-1.71084499359130859 3.44253730773925781 -3.96484518051147461
-2.96158695220947266 4.63264322280883789 -5.14998149871826172
-2.33671259880065918 3.91634464263916016 -4.43792581558227539
-2.67666196823120117 1.86709451675415039 -2.32410383224487305
-4.09761333465576172 4.33029842376708984 -4.46251964569091797
-3.50257277488708496 4.64941167831420898 -4.69235038757324219
-1.51601672172546387 0.680119752883911133 -1.90942442417144775
-1.5862877368927002 2.83064961433410645 -3.42537331581115723
-1.19881904125213623 1.75431609153747559 -0.933601200580596924
-2.40101003646850586 4.04928970336914062 -4.0021209716796875
-1.63251721858978271 3.36720657348632812 -4.22215938568115234
-2.98116803169250488 3.54166293144226074 -3.60919880867004395
-2.56701779365539551 3.7484593391418457 -4.30335760116577148
-3.55169463157653809 4.58915424346923828 -5.24019241333007812
-2.76906299591064453 4.28678131103515625 -4.23985099792480469
-5.05843496322631836 5.10281038284301758 -5.38123893737792969
-1.59002971649169922 1.96972620487213135 -3.00371026992797852
-1.58675587177276611 0.0591112971305847168 -1.7974088191986084
-1.64516282081604004 1.27924895286560059 -2.26758766174316406
-3.39871692657470703 3.93270015716552734 -4.00007295608520508
-1.71607506275177002 2.66250038146972656 -3.49172353744506836
-2.91988945007324219 4.27794551849365234 -4.38840770721435547
-4.21196556091308594 4.67853116989135742 -4.78671073913574219
-2.79948711395263672 3.97464609146118164 -4.50237751007080078
-3.0154871940612793 3.74694633483886719 -3.78774237632751465
-2.30780839920043945 4.06026506423950195 -3.85934352874755859
-3.42000389099121094 4.01030349731445312 -4.7467799186706543
-1.41027247905731201 1.19886183738708496 -1.27355682849884033
-1.81148946285247803 3.5652623176574707 -4.23233127593994141
-1.76274704933166504 3.45372796058654785 -4.14446830749511719
-0.979685664176940918 1.93437016010284424 -1.25203251838684082
-2.74635434150695801 3.94734954833984375 -4.45863676071166992
-2.50259494781494141 3.67226743698120117 -4.0313105583190918
-2.57285809516906738 0.407428383827209473 -2.87788295745849609
-1.76453638076782227 2.2551424503326416 -3.07651042938232422
-0.790063917636871338 1.41048848628997803 -1.75175654888153076
-2.05614709854125977 3.87071347236633301 -4.02058315277099609
-2.38272380828857422 2.01007437705993652 -1.80107438564300537
-2.45395660400390625 2.95867443084716797 -3.20878791809082031
-2.65606427192687988 3.9962456226348877 -4.42392301559448242
-1.76967048645019531 4.17965936660766602 -4.64993810653686523
-1.74024319648742676 2.79485344886779785 -3.33705258369445801
-2.33530783653259277 2.93407654762268066 -3.26893138885498047
-2.54279041290283203 3.2304389476776123 -3.64069032669067383
-4.44959306716918945 5.66538238525390625 -5.14328479766845703
-2.55746841430664062 3.75222539901733398 -4.30422306060791016
-1.91867005825042725 2.3550114631652832 -3.06052088737487793
-2.47985935211181641 3.70932459831237793 -4.29207611083984375
-1.67835342884063721 2.29026150703430176 -2.89166474342346191
-2.74379992485046387 3.35264253616333008 -3.51721906661987305
-1.03005361557006836 1.54764711856842041 -1.39967691898345947
-3.7217857837677002 4.26219034194946289 -4.11088275909423828
-3.20008611679077148 3.66969466209411621 -3.69043564796447754
-4.13664960861206055 4.65877580642700195 -4.77025413513183594
-2.09477043151855469 2.76893901824951172 -3.3423464298248291
-4.08722639083862305 4.91084814071655273 -4.74735069274902344
-1.29621529579162598 2.45972251892089844 -2.02248096466064453
-1.48388183116912842 2.98774170875549316 -3.51424837112426758
-2.1573183536529541 3.09231758117675781 -3.6573946475982666
-1.52329063415527344 1.41073691844940186 -2.80099844932556152
-1.83473324775695801 1.43374717235565186 -0.556764781475067139
-1.67221987247467041 2.3552546501159668 -3.20782089233398438
-1.60619652271270752 2.51719856262207031 -3.11237525939941406
-4.52629184722900391 4.92085742950439453 -4.80755138397216797
-3.4988856315612793 3.79149413108825684 -3.99565219879150391
-1.36613905429840088 2.01859664916992188 -2.48901009559631348
-2.57503223419189453 3.10567474365234375 -3.21561121940612793
-2.52918624877929688 4.15128135681152344 -4.02611017227172852
-2.79072761535644531 3.96383953094482422 -4.49288558959960938
-3.33914947509765625 4.14145994186401367 -4.462432861328125
-1.05658042430877686 1.46675372123718262 -2.22217726707458496
-2.94343662261962891 4.19402313232421875 -4.56337165832519531
-3.31657290458679199 4.64484500885009766 -4.62676668167114258
-3.54721808433532715 5.21107053756713867 -4.81579494476318359
-3.16356229782104492 3.59601378440856934 -3.80838179588317871
-3.51524853706359863 4.79774236679077148 -4.7651209831237793
-2.64738321304321289 2.74309849739074707 -2.46256375312805176
-2.78241658210754395 3.97757339477539062 -4.45797872543334961
-0.418377995491027832 -0.175645411014556885 -1.85126078128814697
-4.07482671737670898 4.45990943908691406 -4.5665898323059082
-1.50446629524230957 2.00546646118164062 -2.52249550819396973
-1.07409524917602539 -0.0608156323432922363 -1.671897292137146
-2.57154607772827148 4.00625228881835938 -4.25996923446655273
-3.46374678611755371 4.51104164123535156 -4.51976919174194336
-1.49976444244384766 3.04563617706298828 -3.36388278007507324
-1.74179065227508545 2.41959929466247559 -3.32801294326782227
-3.37734770774841309 4.4216156005859375 -4.6403040885925293
-3.31041502952575684 4.00670051574707031 -4.68413829803466797
-2.84801959991455078 4.11156988143920898 -4.3770136833190918
-2.76449251174926758 3.96383786201477051 -4.52501583099365234
-3.17553353309631348 3.9461510181427002 -3.96497106552124023
-1.78326594829559326 3.58268857002258301 -4.0679931640625
-2.84383130073547363 3.36706829071044922 -3.54414033889770508
-2.66751265525817871 3.91170454025268555 -4.41768932342529297
-2.68215107917785645 3.18808197975158691 -2.46210265159606934
-4.0303492546081543 4.47103595733642578 -4.45891809463500977
-3.81967735290527344 4.16793441772460938 -4.26281261444091797
-1.82860910892486572 3.65120983123779297 -4.03093957901000977
-1.2692798376083374 2.06522822380065918 -2.76231026649475098
-3.20919561386108398 3.70354390144348145 -3.81583404541015625
-2.666473388671875 3.41865205764770508 -3.7018589973449707
-3.60257744789123535 4.53935718536376953 -4.72997283935546875
-1.54720199108123779 3.02928566932678223 -3.74503564834594727
-3.94036459922790527 4.31799650192260742 -4.36352014541625977
-2.71014857292175293 4.07840490341186523 -4.34600973129272461
-1.27178323268890381 2.26624298095703125 -1.44474172592163086
-2.61300516128540039 3.83136796951293945 -4.34220647811889648
-1.54133760929107666 3.15567469596862793 -3.85267996788024902
-2.49788975715637207 3.8876950740814209 -4.36764335632324219
-0.909123778343200684 1.76272428035736084 -1.57774651050567627
-3.11699581146240234 4.58659601211547852 -5.04799652099609375
-2.86786127090454102 4.37209701538085938 -4.75612449645996094
-2.16852045059204102 2.57692289352416992 -3.20787382125854492
-1.50854849815368652 3.0199127197265625 -3.731689453125
-2.61123919486999512 3.84251523017883301 -4.35082387924194336
-3.46848201751708984 3.79024267196655273 -4.55865764617919922
-2.31221938133239746 3.95432114601135254 -4.17331123352050781
-1.79089105129241943 2.15732574462890625 -2.89253425598144531
-2.45487499237060547 2.98505902290344238 -3.35373234748840332
-2.32659459114074707 3.48514485359191895 -4.04159259796142578
-2.86076903343200684 3.44751715660095215 -3.57466530799865723
-2.07868361473083496 0.220140814781188965 -2.12912940979003906
-3.33896994590759277 4.52549886703491211 -4.29572677612304688
-2.4186251163482666 3.92460370063781738 -4.17535924911499023
-0.812056422233581543 1.823020339012146 -1.14967703819274902
-2.77231764793395996 3.30647826194763184 -3.518798828125
-1.84525823593139648 3.52305364608764648 -4.22061491012573242
-1.6463695764541626 3.04075407981872559 -3.40166521072387695
-1.64717090129852295 3.24006104469299316 -3.90917277336120605
-1.59625828266143799 3.2724921703338623 -3.79943490028381348
-1.4923936128616333 1.66911470890045166 -2.26529788970947266
-2.67988967895507812 4.25136566162109375 -4.1961665153503418
-4.28834962844848633 5.43355941772460938 -5.02736234664916992
-2.80371975898742676 3.92991876602172852 -4.45958423614501953
-2.80664229393005371 3.96358895301818848 -4.49247217178344727
-3.00515103340148926 3.53985762596130371 -3.66837882995605469
-0.835832834243774414 0.154223442077636719 -1.76408720016479492
-2.71382284164428711 3.46716594696044922 -3.90416216850280762
-2.34068703651428223 3.66463518142700195 -4.30486202239990234
-2.93019652366638184 0.799152135848999023 -2.71889567375183105
-1.25648796558380127 2.51644992828369141 -2.05162620544433594
-4.52763652801513672 4.37728118896484375 -4.85378026962280273
-1.86982524394989014 3.54435491561889648 -4.29208850860595703
-2.61458444595336914 2.96993350982666016 -2.75492477416992188
-1.38341212272644043 1.69657886028289795 -1.41101539134979248
-1.76148998737335205 2.28637194633483887 -3.01660561561584473
-3.49262404441833496 4.76408195495605469 -4.73927068710327148
-3.39203953742980957 4.64266157150268555 -4.7065277099609375
-1.07347655296325684 1.25666236877441406 -1.23649942874908447
-1.7497248649597168 3.50394487380981445 -4.05669403076171875
-1.96788322925567627 2.66429829597473145 -3.41967439651489258
-2.84360575675964355 4.16205692291259766 -4.37411880493164062
-1.20821058750152588 1.74255287647247314 -2.73231291770935059
-3.06378817558288574 4.24764490127563477 -4.70390701293945312
-2.44970560073852539 3.87374663352966309 -4.18789052963256836
-1.72342526912689209 3.4814910888671875 -3.93106865882873535
-3.48798489570617676 4.0425567626953125 -4.03371095657348633
-1.35104084014892578 1.5445711612701416 -0.412387192249298096
-2.87211203575134277 4.06019830703735352 -4.48674869537353516
-1.92491066455841064 2.36582708358764648 -3.06694936752319336
-3.39377903938293457 3.9060361385345459 -3.94864082336425781
-2.75569772720336914 2.08303213119506836 -2.88432574272155762
-2.20789599418640137 2.6575310230255127 -3.13798379898071289
-2.79313373565673828 4.07269096374511719 -4.35301828384399414
-2.85392236709594727 3.36207389831542969 -3.65450096130371094
-3.49941778182983398 4.8698887825012207 -4.75985479354858398
-1.94667470455169678 2.89246320724487305 -3.55373096466064453
-1.15801942348480225 1.08801662921905518 -2.07590937614440918
-3.31653070449829102 4.02744150161743164 -4.23173427581787109
-1.75300467014312744 2.29168868064880371 -3.14460873603820801
-1.09925675392150879 1.64420509338378906 -2.4959869384765625
-2.520416259765625 4.25517129898071289 -4.76215696334838867
-2.40788841247558594 4.01766252517700195 -4.28249502182006836
-2.33229160308837891 2.83010625839233398 -3.10253477096557617
-2.52622175216674805 3.41493558883666992 -3.8243100643157959
-0.615037858486175537 1.66162919998168945 -1.3358534574508667
-0.848011136054992676 1.6131824254989624 -1.8187023401260376
-2.97831821441650391 4.22047328948974609 -4.34030008316040039
-1.67628645896911621 2.55258393287658691 -3.24139142036437988
-2.40731549263000488 3.41141438484191895 -3.88669753074645996
-3.04718494415283203 4.23148536682128906 -4.79789924621582031
-3.49543046951293945 3.97307133674621582 -4.05086374282836914
-2.82917094230651855 4.09084081649780273 -4.50355195999145508
-0.720531880855560303 1.52083063125610352 -1.71206438541412354
-1.12291204929351807 1.2936403751373291 -1.31248819828033447
-1.09725296497344971 1.69543862342834473 -0.776456952095031738
-1.72510135173797607 3.44864106178283691 -4.1366124153137207
-1.56778037548065186 2.59634208679199219 -3.27012228965759277
