ply
format ascii 1.0
element vertex 256
comment vertices
property float x
property float y
property float z
end_header
-2.27904415130615234 3.74257230758666992 -5.62488317489624023
-5.24075174331665039 6.56097602844238281 -9.63558006286621094
-0.537252545356750488 -0.496649026870727539 1.06360840797424316
-5.27516841888427734 5.06036758422851562 -6.24517107009887695
-3.53882265090942383 2.46249556541442871 -1.97484326362609863
-2.60825872421264648 5.97749090194702148 -6.20937871932983398
-3.73309183120727539 4.54026365280151367 -5.13727521896362305
-3.20690035820007324 2.57639193534851074 -4.76875543594360352
-1.79646360874176025 4.49618673324584961 -3.897979736328125
-0.852529048919677734 1.57945704460144043 -2.0794978141784668
-4.59739160537719727 5.62933731079101562 -8.13777351379394531
-3.33930301666259766 4.39429330825805664 -5.98359298706054688
-1.77013146877288818 2.0511932373046875 -4.41780376434326172
-2.95059871673583984 4.21791744232177734 -4.60816860198974609
-2.31669807434082031 5.14551782608032227 -5.66986322402954102
-2.40230655670166016 4.64900779724121094 -7.05279731750488281
-4.23675012588500977 5.57468605041503906 -5.85725307464599609
-2.54056906700134277 1.54101860523223877 -2.55461478233337402
-3.96617531776428223 3.34432101249694824 -5.22782564163208008
-4.52001810073852539 4.24706363677978516 -5.80629968643188477
-2.01095366477966309 4.48081302642822266 -4.99791336059570312
-2.95702743530273438 1.90697681903839111 -4.0636591911315918
-4.41786956787109375 4.89397430419921875 -7.14179801940917969
-3.38103508949279785 4.0746617317199707 -5.54984045028686523
-2.52969741821289062 3.15271544456481934 -4.80454730987548828
-1.26371729373931885 2.80648565292358398 -2.15609407424926758
-3.83897304534912109 3.43235087394714355 -3.8177642822265625
-2.30987071990966797 4.24938297271728516 -5.958099365234375
-1.45456266403198242 0.61239326000213623 -0.751178383827209473
-3.06246018409729004 5.13302707672119141 -5.70030879974365234
-3.33733344078063965 3.76456546783447266 -5.65793657302856445
-3.36314702033996582 3.43455314636230469 -5.01702308654785156
-2.34048557281494141 3.63962841033935547 -3.53651237487792969
-4.0153965950012207 4.74172639846801758 -5.65157365798950195
-1.62980258464813232 3.57462763786315918 -5.06605720520019531
-2.07669544219970703 2.20628714561462402 -3.41608262062072754
-4.88139820098876953 6.17747259140014648 -8.92084312438964844
-3.76148152351379395 4.04528427124023438 -4.91509628295898438
-3.3920280933380127 4.53450870513916016 -5.52817201614379883
-2.13890242576599121 4.07676792144775391 -4.80604791641235352
-2.48502254486083984 2.98547005653381348 -4.15124940872192383
-2.91760754585266113 4.55190420150756836 -4.99241733551025391
-4.88783884048461914 5.73214101791381836 -6.21390342712402344
-4.28174161911010742 3.56011557579040527 -4.59533548355102539
-3.02926158905029297 4.10215377807617188 -5.78560829162597656
-2.87265205383300781 4.12584543228149414 -5.59225606918334961
-3.42649674415588379 4.50212383270263672 -4.97060298919677734
-4.13166284561157227 4.72871732711791992 -5.77598047256469727
-3.64115405082702637 3.78068399429321289 -5.54638290405273438
-1.94111824035644531 2.90822029113769531 -4.78638172149658203
-2.4281456470489502 5.66676139831542969 -5.95438432693481445
-3.29499626159667969 1.98762333393096924 -2.58530759811401367
-2.54413890838623047 3.75318717956542969 -4.07670688629150391
-3.53589224815368652 5.69507646560668945 -5.97013521194458008
-1.31813788414001465 2.66800761222839355 -3.16926288604736328
-3.14335036277770996 4.0157470703125 -5.02543067932128906
-3.47816896438598633 2.62337064743041992 -3.62421059608459473
-2.46050786972045898 1.90056514739990234 -4.12306833267211914
-2.21545863151550293 4.11113405227661133 -5.1851353645324707
-3.74585771560668945 2.8848574161529541 -5.05611610412597656
-3.09136080741882324 3.81291627883911133 -5.56404352188110352
-1.59514832496643066 1.07787537574768066 -2.57880640029907227
-2.82057356834411621 4.9793086051940918 -5.67310142517089844
-3.36262798309326172 2.47797012329101562 -4.37208223342895508
-3.8717343807220459 4.70064878463745117 -5.1004791259765625
-3.74205350875854492 3.86987876892089844 -5.64007234573364258
-2.07418441772460938 3.08242130279541016 -5.23957061767578125
-2.75015997886657715 4.39816951751708984 -6.36288309097290039
-2.50044965744018555 3.42910504341125488 -5.07238674163818359
-3.60713410377502441 4.61733531951904297 -5.36840105056762695
-2.63763284683227539 4.31722021102905273 -5.1147761344909668
-2.79924774169921875 4.04788303375244141 -5.76471710205078125
-2.41915345191955566 4.11615514755249023 -5.76512289047241211
-1.72053956985473633 4.1370244026184082 -4.42314386367797852
-3.05226755142211914 2.94405555725097656 -4.78962326049804688
-1.67136263847351074 3.89567446708679199 -3.43901729583740234
-3.30467653274536133 3.34774327278137207 -4.9787440299987793
-1.89312195777893066 3.94343185424804688 -5.11849784851074219
-3.87443923950195312 4.61094951629638672 -6.66387844085693359
-2.9644618034362793 4.63318729400634766 -5.49305820465087891
-3.2494513988494873 4.58928394317626953 -5.79842424392700195
-3.52034640312194824 4.45856428146362305 -4.77377462387084961
-3.93401527404785156 4.98061418533325195 -5.6732177734375
-3.61519360542297363 4.00925874710083008 -4.08757400512695312
-1.8825376033782959 2.67374372482299805 -4.59841108322143555
-3.96406459808349609 4.20691633224487305 -5.67721128463745117
-2.72836017608642578 3.5592494010925293 -3.36170625686645508
-4.19213533401489258 5.20597124099731445 -7.54879951477050781
-4.58402395248413086 4.67555332183837891 -6.16461706161499023
-2.41307640075683594 3.99673628807067871 -4.12190723419189453
-0.774078786373138428 1.17048680782318115 -1.40969979763031006
-3.51770257949829102 2.9956061840057373 -4.37288904190063477
-4.23780298233032227 3.76388144493103027 -5.27278327941894531
-1.74417591094970703 1.26165938377380371 -3.01654672622680664
-0.63595736026763916 -0.00697177648544311523 0.0987149477005004883
-3.16423940658569336 3.17649984359741211 -4.98735189437866211
-4.67795181274414062 5.8823084831237793 -8.47086524963378906
-3.27006363868713379 3.60672450065612793 -5.41417741775512695
-3.52396106719970703 3.95459461212158203 -5.48096513748168945
-2.25884580612182617 1.75541996955871582 -3.52179098129272461
-2.4711000919342041 4.30216073989868164 -4.65891933441162109
-4.8385319709777832 5.32594013214111328 -5.84719371795654297
-2.53967714309692383 4.3543095588684082 -5.9045567512512207
-2.87271547317504883 2.06744217872619629 -4.36896133422851562
-2.94992947578430176 2.34765315055847168 -4.6773371696472168
-3.40261125564575195 4.46718549728393555 -6.37622976303100586
-3.2280731201171875 4.70764780044555664 -5.13965749740600586
-2.29899811744689941 4.48461341857910156 -4.94234991073608398
-2.79908537864685059 3.74557924270629883 -5.21825361251831055
-2.80082964897155762 4.06511116027832031 -4.97779464721679688
-3.59630393981933594 4.59829521179199219 -5.30687808990478516
-2.10553479194641113 3.89264440536499023 -5.70811271667480469
-3.08615827560424805 4.47009944915771484 -5.0490412712097168
-1.01178383827209473 1.66642630100250244 -3.35851836204528809
-4.5028080940246582 4.71043586730957031 -5.82181596755981445
-2.06263065338134766 3.54071903228759766 -5.42286777496337891
-2.61188006401062012 4.76151847839355469 -5.21498537063598633
-4.21723413467407227 5.10039234161376953 -5.77415561676025391
-2.70221257209777832 3.3525698184967041 -4.98093318939208984
-3.19937849044799805 3.9252314567565918 -5.74833106994628906
-2.4937894344329834 2.73676753044128418 -3.81254863739013672
-3.12664937973022461 4.06177043914794922 -4.97483110427856445
-3.11185121536254883 3.94351768493652344 -5.12724208831787109
-1.73837864398956299 2.60204124450683594 -3.82797145843505859
-1.52526628971099854 2.81475329399108887 -4.32152557373046875
-1.83739769458770752 4.10016870498657227 -4.94656753540039062
-3.52118968963623047 3.21321725845336914 -5.01598834991455078
-1.9209367036819458 0.325545907020568848 -0.70838773250579834
-3.6533048152923584 4.57570648193359375 -4.90369749069213867
-2.67899203300476074 2.81321525573730469 -4.66296911239624023
-3.8220970630645752 3.97138214111328125 -4.53275775909423828
-3.41716361045837402 3.07984495162963867 -2.85073113441467285
-3.13373565673828125 3.85016250610351562 -5.45122766494750977
-4.39550304412841797 3.57007741928100586 -5.52031993865966797
-2.02797532081604004 2.55191278457641602 -4.29450035095214844
-3.52915620803833008 3.63388681411743164 -5.38638830184936523
-2.40337681770324707 4.02262115478515625 -5.38271713256835938
-5.05863142013549805 6.48199558258056641 -9.25973606109619141
-2.86683893203735352 3.04468488693237305 -4.85119819641113281
-2.17322659492492676 3.12422418594360352 -4.9605250358581543
-4.84328985214233398 4.68713045120239258 -5.78961658477783203
-2.52139687538146973 4.13558483123779297 -4.39124202728271484
-4.16380214691162109 5.18441104888916016 -5.83193206787109375
-3.22937226295471191 3.93340277671813965 -5.44155263900756836
-3.05029749870300293 1.59566998481750488 -3.65374255180358887
-2.99180793762207031 4.34832239151000977 -4.87688589096069336
-1.16799235343933105 2.29554891586303711 -2.88919353485107422
-4.01271295547485352 4.29606103897094727 -5.78576278686523438
-3.85459041595458984 4.54733657836914062 -5.26729154586791992
-3.56270146369934082 2.84666872024536133 -3.97885870933532715
-3.28512310981750488 2.20053577423095703 -3.58703780174255371
-2.31028008460998535 3.25867056846618652 -3.04562616348266602
-4.15858650207519531 4.23825502395629883 -5.10811424255371094
-3.13712716102600098 2.9524533748626709 -4.73229026794433594
-2.96663713455200195 2.16070222854614258 -4.4483180046081543
-2.95221281051635742 4.34115076065063477 -5.8841094970703125
-2.72328639030456543 4.47254276275634766 -4.86405134201049805
-3.71148514747619629 3.47322440147399902 -5.27710437774658203
-2.40251946449279785 4.55185747146606445 -6.11268424987792969
-2.62386846542358398 1.38813924789428711 -2.42674779891967773
-2.8765864372253418 4.95179319381713867 -5.59398412704467773
-4.66702032089233398 3.91811776161193848 -5.74916934967041016
-2.78428769111633301 4.30200576782226562 -5.83811330795288086
-2.25934982299804688 3.30685997009277344 -5.06340503692626953
-3.47883772850036621 4.07480239868164062 -5.47300148010253906
-3.46985769271850586 5.02400588989257812 -5.70383405685424805
-2.13539671897888184 3.72340083122253418 -5.45364475250244141
-1.83896815776824951 3.34720730781555176 -4.81426239013671875
-2.07942962646484375 4.31518936157226562 -4.46483898162841797
-2.5760040283203125 3.67755126953125 -3.72198390960693359
-3.0816655158996582 4.95375537872314453 -5.69505786895751953
-2.95216464996337891 3.77161335945129395 -3.75012063980102539
-3.21383142471313477 2.7041633129119873 -4.55099964141845703
-1.33793985843658447 2.59622621536254883 -4.06507396697998047
-2.46306157112121582 4.08729124069213867 -5.8104853630065918
-3.95795130729675293 3.66964244842529297 -4.06964635848999023
-2.08782553672790527 1.40905427932739258 -3.0941314697265625
-2.7137143611907959 4.09331178665161133 -5.35114622116088867
-3.92093396186828613 3.63452529907226562 -4.70500755310058594
-2.22505998611450195 4.10457420349121094 -5.80071496963500977
-2.74229574203491211 3.44072484970092773 -5.17049932479858398
-2.34402370452880859 4.53020286560058594 -5.08792304992675781
-3.8927309513092041 4.10316276550292969 -5.82959222793579102
-3.26259160041809082 2.63619565963745117 -3.17691516876220703
-3.74279069900512695 4.66300201416015625 -5.47844314575195312
-3.20498514175415039 3.92624521255493164 -5.71143770217895508
-2.34125304222106934 4.02423286437988281 -4.35252523422241211
-2.92193317413330078 4.504669189453125 -5.4749598503112793
-2.33769559860229492 5.43303966522216797 -5.81555891036987305
-3.84668755531311035 4.6339268684387207 -5.04252767562866211
-2.74079704284667969 3.86307454109191895 -5.75096225738525391
-2.1187589168548584 3.54713869094848633 -3.91907596588134766
-4.33892726898193359 5.40465736389160156 -5.84522104263305664
-3.423431396484375 5.55862617492675781 -5.76295137405395508
-1.56651103496551514 2.70658016204833984 -4.52827978134155273
-3.22426748275756836 3.70687007904052734 -5.62624454498291016
-2.56507372856140137 3.8392488956451416 -5.71537351608276367
-2.33331966400146484 4.37689590454101562 -5.08614778518676758
-3.74781990051269531 4.11072635650634766 -5.41387128829956055
-2.24422979354858398 2.28402948379516602 -3.75882816314697266
-1.35783612728118896 1.45967960357666016 -3.5734093189239502
-2.68349409103393555 2.12767410278320312 -4.21936702728271484
-1.7875598669052124 3.98237919807434082 -5.46359491348266602
-4.47609138488769531 3.99581670761108398 -5.75329780578613281
-3.46605443954467773 4.56986284255981445 -5.15118646621704102
-2.51643037796020508 3.63979649543762207 -5.34046554565429688
-3.04359817504882812 2.73048734664916992 -4.74118328094482422
-1.83243715763092041 3.78357410430908203 -5.23018360137939453
-3.1855766773223877 4.19991159439086914 -4.22625398635864258
-3.23189616203308105 2.41796302795410156 -3.86579585075378418
-2.93269634246826172 4.18338394165039062 -5.59522867202758789
-2.96038341522216797 4.44155120849609375 -5.03600788116455078
-3.07918620109558105 3.76632547378540039 -5.57781600952148438
-2.68866991996765137 4.54690408706665039 -6.74796533584594727
-1.41977918148040771 2.16292381286621094 -2.65064859390258789
-3.43322181701660156 4.10028505325317383 -5.45368385314941406
-1.75938689708709717 2.93463587760925293 -4.88161611557006836
-2.30186772346496582 5.86935758590698242 -5.90028238296508789
-1.69304072856903076 1.27353119850158691 -1.55005884170532227
-3.97119593620300293 4.70078229904174805 -5.7057037353515625
-3.92012929916381836 3.09882450103759766 -5.17600488662719727
-2.88278985023498535 2.92497467994689941 -4.93435192108154297
-3.55725836753845215 3.18331289291381836 -3.5606544017791748
-2.2510836124420166 4.28322315216064453 -5.10112571716308594
-2.61069130897521973 1.78485572338104248 -3.86381196975708008
-2.88608193397521973 2.81218862533569336 -4.73793601989746094
-0.652841389179229736 0.236209273338317871 -0.25023198127746582
-3.64357733726501465 3.86877584457397461 -5.72611331939697266
-2.12425589561462402 3.73011422157287598 -5.75649070739746094
-4.19154977798461914 3.5718379020690918 -5.42196989059448242
-3.75060462951660156 4.80980491638183594 -5.46397972106933594
-2.00612330436706543 3.92825913429260254 -4.93191194534301758
-1.6328427791595459 4.06169700622558594 -3.72877097129821777
-3.28598761558532715 2.62390708923339844 -4.65147304534912109
-3.29070019721984863 4.31380224227905273 -5.17834711074829102
-3.82285642623901367 3.59148788452148438 -4.94875049591064453
-1.08106422424316406 3.14146947860717773 -2.5612938404083252
-2.78428292274475098 3.56735539436340332 -5.04611730575561523
-3.04752516746520996 1.80651700496673584 -1.17273819446563721
-3.49136161804199219 4.01162004470825195 -5.39247465133666992
-3.04845619201660156 2.87806892395019531 -4.74795198440551758
-4.50971412658691406 5.51313638687133789 -7.7825469970703125
-3.26488018035888672 4.41910839080810547 -4.58723688125610352
-2.34448647499084473 4.3486027717590332 -4.9808354377746582
-3.13398838043212891 3.34168744087219238 -5.06510162353515625
-1.99342763423919678 3.3160092830657959 -5.32038593292236328
-1.72987043857574463 3.7827455997467041 -5.04417037963867188
-3.52893376350402832 4.23832368850708008 -5.40724897384643555
-3.76223134994506836 4.08531570434570312 -5.30019044876098633
-2.38518309593200684 4.71288442611694336 -5.61717987060546875
-3.28136539459228516 4.40513753890991211 -5.05607366561889648
-2.59214258193969727 3.21987509727478027 -4.89420032501220703
-3.71405220031738281 3.48784804344177246 -5.02164745330810547
-1.95622706413269043 3.62544918060302734 -5.58033132553100586
-3.34271454811096191 4.29922866821289062 -5.196044921875
-3.37472677230834961 2.71890878677368164 -4.92900800704956055
