ply
format ascii 1.0
element vertex 114
comment vertices
property float x
property float y
property float z
end_header
-0.00767191126942634583 2.39774584770202637 -1.15998589992523193
0.0521383881568908691 2.77988243103027344 -1.19120967388153076
-1.10487699508666992 2.4767458438873291 -1.11619091033935547
-0.582700550556182861 1.97586929798126221 -1.19765663146972656
0.751499831676483154 3.55421543121337891 -1.10134577751159668
1.10943138599395752 2.62747383117675781 -1.08549106121063232
0.201395943760871887 2.71805620193481445 -1.15650284290313721
0.194687306880950928 1.34790349006652832 -1.12922513484954834
0.0366765484213829041 2.73590517044067383 -1.1730424165725708
-0.195206627249717712 2.27569675445556641 -1.17094755172729492
0.729838311672210693 3.57199811935424805 -1.12417387962341309
-0.17213885486125946 2.26767611503601074 -1.20152842998504639
1.0852961540222168 2.65775012969970703 -1.06815826892852783
-0.288259744644165039 3.91717886924743652 -1.0832211971282959
0.152846634387969971 2.95902085304260254 -1.18150687217712402
0.664861798286437988 2.1774132251739502 -1.10213494300842285
1.1568303108215332 2.6122586727142334 -1.09844982624053955
-0.164630115032196045 2.16766071319580078 -1.20913517475128174
-1.09487307071685791 2.48278522491455078 -1.07080447673797607
1.10909390449523926 2.64087057113647461 -1.09161746501922607
0.0203209072351455688 2.59966540336608887 -1.17492818832397461
0.0519099384546279907 2.73387527465820312 -1.16266584396362305
0.19460219144821167 1.37229812145233154 -1.10828447341918945
0.671772778034210205 2.17471432685852051 -1.11037445068359375
0.197371035814285278 2.46814846992492676 -1.14912450313568115
0.123459652066230774 2.8310387134552002 -1.17148828506469727
0.66220778226852417 2.17788839340209961 -1.10921180248260498
-0.911192536354064941 2.42419815063476562 -1.14677226543426514
-0.741112470626831055 1.79903650283813477 -1.15149021148681641
0.176651567220687866 1.37992382049560547 -1.13208293914794922
0.171678528189659119 2.62050390243530273 -1.14430856704711914
-0.0196588411927223206 2.44229030609130859 -1.16906630992889404
-0.0769552290439605713 2.4408423900604248 -1.15561497211456299
-0.287615656852722168 3.90018892288208008 -1.12314510345458984
1.11750924587249756 2.6275627613067627 -1.08612418174743652
-0.0140127129852771759 2.74624228477478027 -1.19540560245513916
0.865734696388244629 2.74986624717712402 -1.11685824394226074
-0.469948172569274902 2.01760768890380859 -1.18888187408447266
0.221481665968894958 2.85031890869140625 -1.1840367317199707
1.08847320079803467 2.6471400260925293 -1.0627521276473999
-0.285124003887176514 3.90998220443725586 -1.12697041034698486
0.761015832424163818 3.54776668548583984 -1.10973215103149414
0.73398745059967041 3.55526518821716309 -1.11417531967163086
-1.10492920875549316 2.47804379463195801 -1.12157845497131348
0.666137576103210449 2.21188259124755859 -1.12730920314788818
-0.264412492513656616 2.0776209831237793 -1.1860804557800293
0.736391305923461914 3.55703568458557129 -1.1113896369934082
-0.397426903247833252 2.00412130355834961 -1.21859622001647949
1.10774517059326172 2.66137552261352539 -1.07964599132537842
0.664833247661590576 2.17379212379455566 -1.093536376953125
0.658667683601379395 2.18993210792541504 -1.1262509822845459
0.181986361742019653 1.36921966075897217 -1.14603042602539062
-1.08987987041473389 2.47589015960693359 -1.06832456588745117
0.200083479285240173 1.34755504131317139 -1.12836205959320068
-0.13585074245929718 2.29518604278564453 -1.19650781154632568
0.660084843635559082 2.19613194465637207 -1.12701594829559326
0.997517645359039307 2.63297533988952637 -1.11157035827636719
0.333841711282730103 3.08044099807739258 -1.16100823879241943
-0.559596002101898193 2.61475586891174316 -1.17434394359588623
-0.100328020751476288 2.42443537712097168 -1.167153000831604
-0.291156232357025146 3.90721440315246582 -1.10431110858917236
0.209555670619010925 1.45939218997955322 -1.0748591423034668
0.175246685743331909 2.72427558898925781 -1.18271994590759277
0.103141307830810547 2.59764361381530762 -1.1702568531036377
0.12938082218170166 2.71592402458190918 -1.16435730457305908
-0.00918148644268512726 2.55372953414916992 -1.16622889041900635
0.757430613040924072 3.54945206642150879 -1.11370635032653809
0.0552223995327949524 2.73072314262390137 -1.16596889495849609
0.00877185538411140442 2.83219432830810547 -1.18682098388671875
0.19529096782207489 1.37212586402893066 -1.12311005592346191
1.0908735990524292 2.64349985122680664 -1.09903931617736816
1.10097301006317139 2.62574386596679688 -1.08685088157653809
0.0534298568964004517 2.50702571868896484 -1.15423309803009033
-0.0158892571926116943 2.65682888031005859 -1.14837324619293213
0.0537359714508056641 2.7715756893157959 -1.19160342216491699
0.150155618786811829 2.75133800506591797 -1.17086362838745117
-0.394453942775726318 2.05274105072021484 -1.1611868143081665
0.661054790019989014 2.17764377593994141 -1.11101460456848145
0.191387921571731567 1.71405792236328125 -1.15008199214935303
0.657741904258728027 2.17999958992004395 -1.10816502571105957
0.194447636604309082 1.3777393102645874 -1.10116207599639893
1.09935593605041504 2.66240692138671875 -1.0880587100982666
0.496964722871780396 2.80074191093444824 -1.12957775592803955
-0.139978289604187012 2.18868708610534668 -1.19066977500915527
0.100351318717002869 2.77200174331665039 -1.1707921028137207
-0.285591721534729004 3.90920901298522949 -1.09757852554321289
-0.34691736102104187 2.1912844181060791 -1.1914222240447998
1.12643706798553467 2.63248825073242188 -1.10448896884918213
-0.296604126691818237 3.92158102989196777 -1.08744001388549805
-0.0559232756495475769 2.54540657997131348 -1.15604901313781738
0.0749100595712661743 2.7383277416229248 -1.16614937782287598
0.755312323570251465 3.5518498420715332 -1.10695242881774902
0.177860170602798462 2.83016729354858398 -1.17924618721008301
0.658854901790618896 2.17798089981079102 -1.102577805519104
0.655358195304870605 2.18538403511047363 -1.11224162578582764
0.287443310022354126 3.03543567657470703 -1.1589658260345459
-1.11458563804626465 2.46321511268615723 -1.12233328819274902
0.0484651587903499603 2.55914545059204102 -1.15694224834442139
0.00107332691550254822 2.8778989315032959 -1.18907797336578369
0.805360794067382812 3.02989292144775391 -1.11785173416137695
-0.29869958758354187 2.26420354843139648 -1.16875123977661133
1.10796809196472168 2.63174891471862793 -1.09216952323913574
-0.391570240259170532 1.99261283874511719 -1.20820915699005127
0.198279827833175659 1.35486948490142822 -1.11039042472839355
0.271690905094146729 3.03168773651123047 -1.13086974620819092
0.660332441329956055 2.19996404647827148 -1.11805975437164307
-0.279882133007049561 3.4143986701965332 -1.16936600208282471
0.13444875180721283 2.78010272979736328 -1.1739048957824707
0.665105044841766357 2.1860206127166748 -1.12063634395599365
1.11780941486358643 2.62769699096679688 -1.09295487403869629
-0.161375641822814941 2.30742573738098145 -1.16876697540283203
-1.10154259204864502 2.47606801986694336 -1.096596360206604
0.264734715223312378 2.92564558982849121 -1.17685997486114502
0.704288661479949951 2.74241185188293457 -1.1364595890045166
