ply
format ascii 1.0
element vertex 110
comment vertices
property float x
property float y
property float z
end_header
-0.392825067043304443 1.91734874248504639 -1.21329450607299805
1.12403583526611328 2.61140298843383789 -1.10680365562438965
-0.0929741710424423218 2.5301811695098877 -1.15092873573303223
0.489088207483291626 2.09627723693847656 -1.13550710678100586
0.475258976221084595 3.27036833763122559 -1.09256768226623535
-1.10684883594512939 2.47298312187194824 -1.09290266036987305
-0.293664664030075073 3.91706538200378418 -1.09987711906433105
0.114425018429756165 2.80643367767333984 -1.15909194946289062
0.544170022010803223 3.36951231956481934 -1.11689114570617676
1.10527634620666504 2.60671782493591309 -1.09213221073150635
0.195948585867881775 1.36438429355621338 -1.11683750152587891
-0.0798179358243942261 2.50861573219299316 -1.14250874519348145
0.000231657177209854126 2.8908836841583252 -1.18150031566619873
0.0368396006524562836 2.68806958198547363 -1.1707078218460083
-0.174548104405403137 2.15732336044311523 -1.19874739646911621
0.681071937084197998 2.19138717651367188 -1.10205113887786865
-0.348052084445953369 3.85866928100585938 -1.12547099590301514
0.762318551540374756 3.53350138664245605 -1.12082409858703613
-1.09016251564025879 2.48171782493591309 -1.05730366706848145
1.12763738632202148 2.60664486885070801 -1.09485149383544922
-0.305229157209396362 2.11683320999145508 -1.18951189517974854
0.664677262306213379 2.18256545066833496 -1.10175871849060059
-0.378862857818603516 2.39001774787902832 -1.13651740550994873
0.912399649620056152 2.66561174392700195 -1.12370193004608154
0.197256073355674744 1.36376810073852539 -1.13479864597320557
-0.0137870125472545624 2.69839358329772949 -1.12414431571960449
0.206196188926696777 1.36904561519622803 -1.09468328952789307
-0.300807833671569824 3.92896103858947754 -1.14042377471923828
0.663400948047637939 2.18406009674072266 -1.10588753223419189
-0.283419340848922729 1.99250495433807373 -1.19873452186584473
1.08839237689971924 2.63324546813964844 -1.07142722606658936
0.00669010356068611145 2.97466492652893066 -1.17814159393310547
0.0627437606453895569 2.82531833648681641 -1.16874587535858154
-0.00483334530144929886 2.7264256477355957 -1.16477370262145996
-0.327827095985412598 2.16808366775512695 -1.1559147834777832
-0.0995205938816070557 2.35057449340820312 -1.16649127006530762
1.06875884532928467 2.71225571632385254 -1.09225296974182129
-0.0427725203335285187 2.73456978797912598 -1.17445969581604004
0.786477863788604736 3.4906003475189209 -1.10585165023803711
0.206887692213058472 2.9554293155670166 -1.17773973941802979
-1.092246413230896 2.46509265899658203 -1.10946643352508545
0.669287145137786865 2.18380546569824219 -1.115195631980896
-0.174447521567344666 2.25345253944396973 -1.16303813457489014
-0.299143373966217041 3.90724992752075195 -1.11693668365478516
0.756819069385528564 3.5335547924041748 -1.11945831775665283
1.13955986499786377 2.62440276145935059 -1.09950876235961914
0.758362233638763428 3.55793571472167969 -1.12168216705322266
-1.10493505001068115 2.46300697326660156 -1.04901039600372314
-0.285831212997436523 2.01857304573059082 -1.20136904716491699
1.09393227100372314 2.6219482421875 -1.09914088249206543
-0.0442756637930870056 2.78228545188903809 -1.17375075817108154
0.650452017784118652 2.21601462364196777 -1.07345914840698242
0.197229877114295959 1.35871326923370361 -1.11492156982421875
0.21308581531047821 1.48575794696807861 -1.10982072353363037
0.689301669597625732 2.22083282470703125 -1.10485756397247314
-0.171652451157569885 2.47225213050842285 -1.14941895008087158
-0.55254131555557251 1.8523552417755127 -1.14924788475036621
0.767175018787384033 3.5553734302520752 -1.12129855155944824
0.6763153076171875 2.17551803588867188 -1.101112961769104
0.66292417049407959 2.2012031078338623 -1.12135827541351318
0.00928607769310474396 2.57480263710021973 -1.15612185001373291
-1.10702216625213623 2.4681396484375 -1.07815194129943848
1.10877883434295654 2.61404514312744141 -1.07604062557220459
0.768496692180633545 3.53026914596557617 -1.11975598335266113
0.744517505168914795 3.55571627616882324 -1.11186087131500244
0.168918535113334656 3.01342082023620605 -1.19179618358612061
0.249475970864295959 2.96194720268249512 -1.16022408008575439
0.66009289026260376 2.27178740501403809 -1.12466800212860107
-0.445213049650192261 1.97647380828857422 -1.20491540431976318
0.185316264629364014 1.36775624752044678 -1.12632215023040771
-0.442116469144821167 1.98167729377746582 -1.20530474185943604
0.33432239294052124 2.66187000274658203 -1.12222254276275635
-0.35951581597328186 3.92356014251708984 -1.14551925659179688
-0.3104095458984375 2.13018441200256348 -1.14295578002929688
0.095758683979511261 2.83509588241577148 -1.16954517364501953
0.189983204007148743 1.38508880138397217 -1.09666061401367188
1.12697553634643555 2.60394477844238281 -1.09844291210174561
-0.177243500947952271 2.41677021980285645 -1.14408290386199951
0.672714650630950928 2.18045997619628906 -1.10157167911529541
0.107522599399089813 2.79398798942565918 -1.15248823165893555
1.12061583995819092 2.65560674667358398 -1.08412468433380127
0.665761888027191162 2.18524050712585449 -1.12388205528259277
1.1047741174697876 2.64192914962768555 -1.07616722583770752
0.74050527811050415 3.54759955406188965 -1.10404396057128906
-0.0816520750522613525 2.68456459045410156 -1.13521039485931396
0.0510746762156486511 2.70591330528259277 -1.17875885963439941
0.125236541032791138 2.85146164894104004 -1.17614054679870605
0.913707733154296875 2.80913805961608887 -1.08601844310760498
0.66402435302734375 2.18541193008422852 -1.11761116981506348
0.104659430682659149 2.7607724666595459 -1.16170597076416016
-0.010994449257850647 2.38800406455993652 -1.17033481597900391
-0.000616997480392456055 2.45979571342468262 -1.12897133827209473
0.682460010051727295 2.19677734375 -1.1256108283996582
0.194479852914810181 1.37500011920928955 -1.0988236665725708
-0.148884937167167664 2.38277554512023926 -1.1307833194732666
-0.0928774774074554443 2.37933230400085449 -1.16582345962524414
-0.262383013963699341 3.87768673896789551 -1.13253343105316162
0.0369539037346839905 2.93362045288085938 -1.15924477577209473
0.669284641742706299 2.18176722526550293 -1.10459935665130615
1.0905691385269165 2.63151407241821289 -1.07425117492675781
-1.11430883407592773 2.47822475433349609 -1.10715627670288086
0.0115547925233840942 2.73584485054016113 -1.17544794082641602
-0.297252178192138672 3.91312026977539062 -1.0968785285949707
-1.10587477684020996 2.47017598152160645 -1.08980834484100342
-0.0245972722768783569 2.57166171073913574 -1.12458336353302002
-0.28928220272064209 2.04433298110961914 -1.19848906993865967
-0.226646631956100464 2.26886987686157227 -1.1755683422088623
0.0177874825894832611 2.81774616241455078 -1.17858445644378662
0.681033313274383545 2.20270180702209473 -1.12532961368560791
0.784430503845214844 3.54015374183654785 -1.13603508472442627
