ply
format ascii 1.0
element vertex 256
comment vertices
property float x
property float y
property float z
end_header
0.0173844397068023682 2.38507366180419922 -1.19787693023681641
-0.550991535186767578 4.82899379730224609 -0.303126424551010132
1.38060057163238525 4.00934982299804688 -0.468963921070098877
-2.0645751953125 2.53719758987426758 -0.622169435024261475
-0.872461259365081787 3.98521256446838379 -1.11927115917205811
1.31348371505737305 3.12239432334899902 -1.17387783527374268
0.627013564109802246 4.63114261627197266 -0.546433448791503906
-0.0210056602954864502 2.82898831367492676 -1.19878745079040527
-1.1112290620803833 2.46534490585327148 -1.12525761127471924
0.648357570171356201 4.41182613372802734 -0.297927767038345337
-1.13161683082580566 4.10004377365112305 -0.612899065017700195
0.257517814636230469 4.60983085632324219 -0.53601229190826416
-0.512174606323242188 2.07140040397644043 -1.23034954071044922
0.756486177444458008 3.54364109039306641 -1.105202317237854
1.13244056701660156 2.63846945762634277 -1.05975675582885742
-0.998744964599609375 2.95784258842468262 -1.23995447158813477
0.288405120372772217 2.71154665946960449 -1.16576170921325684
1.12976408004760742 4.10125970840454102 -0.952205181121826172
0.173807412385940552 1.35429370403289795 -1.11226797103881836
-0.028041452169418335 2.78285765647888184 -1.14180564880371094
-0.228642076253890991 2.34155750274658203 -1.14441943168640137
0.958742916584014893 4.22244119644165039 -0.846021831035614014
1.34839797019958496 4.17483663558959961 -0.941240310668945312
-1.72560739517211914 2.76401829719543457 -1.22276067733764648
0.244111776351928711 4.33749151229858398 -0.854130744934082031
-0.911139190196990967 4.17901325225830078 -0.958676815032958984
0.650511682033538818 3.34463691711425781 -1.24269533157348633
-0.219705492258071899 2.30564045906066895 -1.21919894218444824
-1.65489721298217773 3.53524637222290039 -0.342963546514511108
1.21606457233428955 4.2032933235168457 -0.174661517143249512
1.00824499130249023 2.70085334777832031 -1.07591235637664795
0.334607630968093872 4.60313081741333008 -0.42074817419052124
-1.13321495056152344 4.42929458618164062 -0.388957381248474121
-0.33601456880569458 3.91951322555541992 -1.08710479736328125
-1.5081409215927124 2.69159460067749023 -1.01218259334564209
-1.26319670677185059 3.72938013076782227 -0.983639180660247803
0.611816763877868652 4.42424249649047852 -0.644405663013458252
0.0949882864952087402 3.0367286205291748 -1.1612706184387207
0.689424335956573486 2.18871641159057617 -1.08968448638916016
1.25330734252929688 2.54897975921630859 -1.12887465953826904
-0.731581389904022217 4.34439516067504883 -0.494328022003173828
-1.18327832221984863 4.01250457763671875 -0.846459150314331055
-0.174131259322166443 2.15495491027832031 -1.23857510089874268
1.2906947135925293 3.62915682792663574 -1.15433168411254883
0.75714111328125 4.49874114990234375 -0.820888400077819824
-1.17772924900054932 3.5998234748840332 -1.16450071334838867
-1.05397391319274902 2.54282474517822266 -1.04147040843963623
0.591309964656829834 4.14957809448242188 -0.680735290050506592
0.268978267908096313 4.48416519165039062 -0.665393948554992676
0.725997865200042725 4.01187324523925781 -0.824332714080810547
1.04076159000396729 2.62923336029052734 -1.11141204833984375
0.0147517994046211243 2.63862252235412598 -1.19916737079620361
0.0142819955945014954 2.75422310829162598 -1.15701878070831299
0.208804860711097717 1.43062567710876465 -1.09260773658752441
0.825887739658355713 2.25425839424133301 -1.14129745960235596
0.270085632801055908 2.47243070602416992 -1.19563865661621094
-0.587455391883850098 4.220916748046875 -0.987467110157012939
0.069857478141784668 2.89446258544921875 -1.16286385059356689
1.70350003242492676 4.07007741928100586 -0.982618808746337891
-1.04154407978057861 4.52468204498291016 -0.663167476654052734
0.38632163405418396 4.72178125381469727 -0.765107512474060059
-1.29914569854736328 4.13979482650756836 -0.382072806358337402
0.680869340896606445 2.20953869819641113 -1.10944294929504395
0.945216655731201172 3.85523056983947754 -1.01665616035461426
-0.742624044418334961 2.37918853759765625 -1.13734138011932373
0.759491920471191406 4.10276460647583008 -0.996103286743164062
0.700783908367156982 4.57182693481445312 -0.432941824197769165
-0.569849252700805664 1.9723736047744751 -1.14389729499816895
0.15446239709854126 1.46493709087371826 -1.15880584716796875
0.241885483264923096 2.59304213523864746 -1.17327654361724854
-0.045390784740447998 2.46423149108886719 -1.19449615478515625
-0.154201120138168335 2.48554325103759766 -1.15737068653106689
-0.436188340187072754 4.54465150833129883 -0.916262507438659668
-0.325108230113983154 3.89296555519104004 -1.15967082977294922
1.1525576114654541 2.62332391738891602 -1.06271600723266602
-1.45351016521453857 3.92681026458740234 -0.668073832988739014
-1.28122758865356445 4.35153484344482422 -0.713535785675048828
0.273303985595703125 4.64507389068603516 -0.443258613348007202
0.948234498500823975 4.06229782104492188 -0.558450937271118164
-0.067819446325302124 2.80021977424621582 -1.22379732131958008
0.742926478385925293 2.77543473243713379 -1.07050788402557373
-0.444917529821395874 2.10283422470092773 -1.20293545722961426
0.638716995716094971 4.08988714218139648 -0.70506131649017334
0.201736807823181152 2.8884730339050293 -1.20239758491516113
1.0399012565612793 2.71054816246032715 -1.04544425010681152
0.986267507076263428 4.6118769645690918 -0.338912129402160645
0.18083617091178894 4.43412446975708008 -0.601949095726013184
-0.233036026358604431 3.86073946952819824 -1.14333975315093994
-1.11563408374786377 4.00929832458496094 -1.01308882236480713
0.71266019344329834 3.56844997406005859 -1.10309278964996338
-0.943216025829315186 3.77123022079467773 -0.848617255687713623
-1.36822938919067383 3.69038271903991699 -0.565693795680999756
0.822450399398803711 3.57036209106445312 -1.08418488502502441
-0.779577374458312988 4.40801811218261719 -0.430674970149993896
1.43685710430145264 3.77097606658935547 -0.430429190397262573
-1.92682874202728271 3.47704100608825684 -0.595572054386138916
-1.09200608730316162 2.48847746849060059 -1.14142656326293945
0.373332440853118896 4.97416305541992188 -0.00542497634887695312
0.590726256370544434 2.12411904335021973 -1.19028639793395996
-1.24159526824951172 3.59446358680725098 -1.14279568195343018
0.927446484565734863 4.01176548004150391 -0.966336369514465332
-1.14084506034851074 3.01182222366333008 -1.17020928859710693
-0.0197543129324913025 4.91176891326904297 -0.335821568965911865
-0.24873390793800354 2.0662691593170166 -1.20509064197540283
0.639697492122650146 3.32447981834411621 -1.14473414421081543
-0.937474250793457031 3.84046339988708496 -1.09202194213867188
-0.945021450519561768 4.30512571334838867 -0.476632028818130493
0.945214450359344482 4.38721466064453125 -0.433146059513092041
1.37962639331817627 4.23672723770141602 -0.885065317153930664
-0.390466362237930298 2.06888198852539062 -1.24259746074676514
-1.13455426692962646 3.4286494255065918 -1.0942455530166626
1.12722611427307129 2.80658459663391113 -1.15509939193725586
0.686958253383636475 2.23468685150146484 -1.07271397113800049
0.931722521781921387 3.97886300086975098 -0.713403284549713135
-1.39351463317871094 3.24262142181396484 -1.06872844696044922
0.660927474498748779 2.17116165161132812 -1.15916883945465088
0.106381222605705261 1.34685921669006348 -1.15942835807800293
-1.0664362907409668 2.44550585746765137 -1.02501595020294189
0.210108354687690735 1.38007473945617676 -1.11678886413574219
-0.170744374394416809 2.34414958953857422 -1.20478808879852295
-0.660007834434509277 4.10564899444580078 -0.893148601055145264
0.418703854084014893 4.01764392852783203 -0.761295676231384277
1.09077334403991699 3.61805987358093262 -1.10640478134155273
0.586730420589447021 2.25189208984375 -1.16093981266021729
-1.16854333877563477 4.73583316802978516 -0.477029889822006226
0.837539792060852051 2.53224492073059082 -1.17577683925628662
-1.86245346069335938 2.72663426399230957 -0.563288331031799316
0.38162684440612793 3.12066411972045898 -1.15792489051818848
-0.646213233470916748 2.5568692684173584 -1.157204270362854
0.589672505855560303 4.6787571907043457 -0.473907530307769775
0.670562803745269775 4.40830087661743164 -0.579473376274108887
0.467839926481246948 4.41896629333496094 -0.681093096733093262
-0.205738186836242676 4.83672380447387695 -0.656220734119415283
0.986400425434112549 4.0361785888671875 -0.54378974437713623
0.846480131149291992 4.07771015167236328 -1.00240802764892578
-0.158691167831420898 2.45235395431518555 -1.17947721481323242
-0.336529374122619629 3.91522026062011719 -1.13014984130859375
0.23001803457736969 1.63260900974273682 -1.06571364402770996
0.91816556453704834 4.33677911758422852 -0.215084254741668701
0.873777270317077637 4.31188488006591797 -0.936891615390777588
0.899939537048339844 3.82464432716369629 -0.926778614521026611
-1.95828437805175781 2.71556186676025391 -0.703697502613067627
0.229384154081344604 2.74386286735534668 -1.22896790504455566
0.0639613717794418335 4.28701400756835938 -0.7583962082862854
0.0889307856559753418 2.64226078987121582 -1.19042658805847168
0.142443686723709106 2.71834731101989746 -1.18180644512176514
0.0790573582053184509 3.82686996459960938 -0.687957942485809326
1.33366048336029053 4.16389226913452148 -0.874557554721832275
0.000464648008346557617 2.58871579170227051 -1.16057884693145752
0.713565349578857422 3.57680559158325195 -1.14652633666992188
-1.84326720237731934 3.68438839912414551 -0.564809024333953857
0.0197002589702606201 2.7467658519744873 -1.16940617561340332
-1.12777531147003174 4.5491790771484375 -0.663410365581512451
-0.0496430173516273499 2.90326690673828125 -1.19131231307983398
0.211493819952011108 1.43945145606994629 -1.12550067901611328
0.578777015209197998 4.04605722427368164 -0.641261637210845947
-0.840061306953430176 4.33816242218017578 -0.582355201244354248
0.397008895874023438 4.17195701599121094 -0.829065203666687012
1.44511616230010986 4.23036861419677734 -0.947658419609069824
1.14661133289337158 3.71941041946411133 -0.716634869575500488
1.04221856594085693 2.71198511123657227 -1.14722061157226562
1.30156111717224121 4.18343353271484375 -0.196265429258346558
1.09486579895019531 2.6594240665435791 -1.07826662063598633
0.612981140613555908 4.66667366027832031 -0.536881804466247559
0.420706897974014282 4.13122463226318359 -0.844001412391662598
0.0959196612238883972 2.51230859756469727 -1.1566014289855957
-0.0876226425170898438 2.69435930252075195 -1.13809919357299805
-0.0170857906341552734 2.81588482856750488 -1.20429325103759766
-1.44001579284667969 3.73923754692077637 -0.340559095144271851
0.621679425239562988 4.46494626998901367 -0.771979451179504395
1.22891390323638916 3.60356664657592773 -0.405920028686523438
0.161792606115341187 2.75157737731933594 -1.21412134170532227
-0.39031556248664856 2.10603427886962891 -1.14385890960693359
0.755336761474609375 4.19614410400390625 -0.984392881393432617
-1.03799855709075928 3.57631063461303711 -1.12068593502044678
-0.713328242301940918 4.00005912780761719 -0.93088608980178833
0.676481008529663086 2.21472287178039551 -1.11460542678833008
0.155072659254074097 1.78683841228485107 -1.17449820041656494
0.666384339332580566 2.19108080863952637 -1.10208797454833984
1.13393962383270264 3.78381633758544922 -1.08419525623321533
0.208734408020973206 1.43985295295715332 -1.08139920234680176
0.890733242034912109 4.2671661376953125 -0.568519890308380127
0.838356733322143555 2.6876373291015625 -1.15453135967254639
-1.24528133869171143 3.51916050910949707 -0.638992011547088623
0.535517573356628418 2.75481247901916504 -1.16299819946289062
-0.134643137454986572 2.1791844367980957 -1.21615076065063477
0.0533316582441329956 4.82394933700561523 -0.240000635385513306
0.635137975215911865 4.14034557342529297 -0.689977049827575684
0.0721491426229476929 2.80823063850402832 -1.17434060573577881
-0.315314173698425293 3.91601085662841797 -1.1141200065612793
-1.04842150211334229 4.21699333190917969 -0.924903690814971924
-0.3504830002784729 2.23675441741943359 -1.20561230182647705
-1.31773185729980469 3.70717453956604004 -0.97288668155670166
1.169342041015625 2.62118721008300781 -1.12037050724029541
-0.359631150960922241 3.94203758239746094 -1.10793924331665039
-0.106762528419494629 2.60254907608032227 -1.15396928787231445
0.0494502261281013489 2.7500770092010498 -1.17702364921569824
-1.12075650691986084 4.54555511474609375 -0.61775517463684082
-1.26038908958435059 4.00654888153076172 -1.02908778190612793
0.993108212947845459 3.63844060897827148 -0.888093352317810059
-1.18887603282928467 4.02636432647705078 -0.46547168493270874
0.749487876892089844 3.57187867164611816 -1.1373448371887207
0.18143954873085022 2.88263654708862305 -1.19910883903503418
0.66808551549911499 2.19910216331481934 -1.08948945999145508
-0.377219021320343018 4.68524169921875 -0.362041175365447998
0.640094101428985596 2.18919253349304199 -1.1103285551071167
-0.0734392404556274414 4.30778694152832031 -0.630904078483581543
-1.17272305488586426 4.37153387069702148 -0.67935490608215332
0.756914496421813965 4.65136575698852539 -0.413995981216430664
0.318713933229446411 3.0727381706237793 -1.16868042945861816
-1.07449805736541748 2.34489798545837402 -1.13325691223144531
-0.538619518280029297 4.59840536117553711 -0.464295923709869385
-1.05856466293334961 4.34769535064697266 -0.667326271533966064
0.104582488536834717 2.57597899436950684 -1.16386735439300537
-1.34533500671386719 2.91779327392578125 -1.09623456001281738
-0.0504218637943267822 2.94750690460205078 -1.19302284717559814
0.843099713325500488 2.99590969085693359 -1.17052233219146729
-0.312843859195709229 2.30625820159912109 -1.155342698097229
0.404208242893218994 4.36173343658447266 -0.548475325107574463
-1.26744592189788818 4.14233303070068359 -0.369712322950363159
-1.39592838287353516 4.59751176834106445 -0.515283763408660889
1.07390165328979492 2.60964441299438477 -1.10318446159362793
0.419627577066421509 4.34411334991455078 -0.583174407482147217
-0.379449158906936646 2.0470736026763916 -1.22774219512939453
-1.20401561260223389 3.51545071601867676 -1.09098696708679199
0.513892471790313721 4.49224185943603516 -0.389463126659393311
0.968985676765441895 4.24091339111328125 -0.986964285373687744
0.210232660174369812 1.39140701293945312 -1.08308947086334229
-2.00074887275695801 2.79094409942626953 -0.619850754737854004
-0.644566476345062256 4.64862060546875 -0.295669287443161011
0.302619457244873047 3.07682991027832031 -1.09685587882995605
-1.71506261825561523 3.56700754165649414 -0.760703325271606445
0.575698375701904297 2.19716119766235352 -1.13674235343933105
-0.118169575929641724 3.39799809455871582 -1.12541818618774414
0.119845211505889893 2.80925107002258301 -1.18711400032043457
-1.76381886005401611 3.39549064636230469 -0.44626152515411377
0.668601095676422119 2.11686086654663086 -1.11428093910217285
0.535448670387268066 4.01532697677612305 -0.711130380630493164
-1.11107802391052246 3.07114362716674805 -0.936351180076599121
0.207662999629974365 4.67678356170654297 -0.648471713066101074
1.14350461959838867 2.57890534400939941 -1.0818934440612793
1.16074001789093018 4.02147674560546875 -0.333388686180114746
0.653280258178710938 4.38881731033325195 -0.571361243724822998
-0.182741612195968628 2.35774517059326172 -1.14834845066070557
-0.840914607048034668 4.58566188812255859 -0.38802686333656311
-1.07148277759552002 3.7012937068939209 -1.14717996120452881
-1.08429396152496338 2.48026704788208008 -1.08901548385620117
0.253667354583740234 3.0277101993560791 -1.15314352512359619
0.497276484966278076 4.49476146697998047 -0.535185754299163818
-0.637029886245727539 4.63723182678222656 -0.506462335586547852
0.627966344356536865 4.16204404830932617 -0.610471010208129883
-0.873770594596862793 4.04532718658447266 -0.848654448986053467
-1.11385107040405273 3.5554347038269043 -0.985487520694732666
1.05632507801055908 3.95491814613342285 -0.933250784873962402
-0.0053889155387878418 4.703399658203125 -0.446281552314758301
0.662747979164123535 2.69035196304321289 -1.18831229209899902
